<svg width="50" height="50" xmlns="http://www.w3.org/2000/svg">
    <g fill="none" fill-rule="evenodd">
        <path d="M0 0h50v50H0z"/>
        <path d="M36.494 26.157c-.02-3.33 1.49-5.84 4.536-7.69-1.704-2.442-4.282-3.784-7.68-4.043-3.218-.254-6.739 1.875-8.028 1.875-1.362 0-4.477-1.787-6.928-1.787-5.059.078-10.435 4.033-10.435 12.08 0 2.378.435 4.834 1.304 7.363 1.162 3.33 5.351 11.49 9.721 11.358 2.286-.054 3.902-1.622 6.875-1.622 2.886 0 4.38 1.621 6.93 1.621 4.408-.063 8.197-7.48 9.3-10.82-5.912-2.788-5.595-8.164-5.595-8.335zm-5.132-14.892c2.476-2.94 2.251-5.616 2.178-6.578-2.187.127-4.717 1.49-6.157 3.165-1.587 1.796-2.52 4.018-2.32 6.523 2.364.18 4.522-1.035 6.3-3.11z" fill="#8D8D8D" fill-rule="nonzero"/>
    </g>
</svg>
