<svg width="90" height="66" xmlns="http://www.w3.org/2000/svg">
    <g fill-rule="nonzero" fill="none">
        <path d="M88.484 46.398c-1.574 3.272-4.299 5.775-7.417 7.68a32.693 32.693 0 0 1-3.98 2.053c-.897.392-1.806.75-2.728 1.072-4.572 1.609-9.41 2.395-14.256 2.398a44.194 44.194 0 0 1-3.058-.102 44.65 44.65 0 0 1-3.58-.385l-.07-.01a44.805 44.805 0 0 1-8.715-2.21c-.124-.044-.248-.09-.37-.135a44.146 44.146 0 0 1-4.053-1.747 48.129 48.129 0 0 1-1.993-1.043 41.476 41.476 0 0 1-6.242-4.281c-.272-.226-.54-.457-.814-.68-.576-.473-1.17-.922-1.831-1.258a6.543 6.543 0 0 0-.613-.272A7.626 7.626 0 0 0 26.328 47c-1.419-.056-2.884.21-4.257.604-.652.186-1.297.4-1.942.619l-.794.27c-.546.188-1.092.372-1.644.54-.184.055-.367.11-.552.161-.737.214-1.488.375-2.248.482a11.89 11.89 0 0 1-5.053-.444l-.14-.044a12.414 12.414 0 0 1-.696-.243l-.14-.054c-.222-.087-.44-.18-.653-.279l-.14-.064a12.314 12.314 0 0 1-.654-.33c-.077-.04-.153-.085-.228-.126a13.767 13.767 0 0 1-3.272-2.566c-.027-.028-.053-.057-.083-.085a12.956 12.956 0 0 1-.39-.442l-.139-.169c-.15-.184-.294-.372-.434-.565l-.06-.084a12.237 12.237 0 0 1-1.442-2.652 13.671 13.671 0 0 1-.305-.88 9.097 9.097 0 0 1-.136-.49C.47 38.331.42 36.429.42 34.539v-.662c.013-3.058.06-6.168.508-9.185a29.155 29.155 0 0 1 .62-3.078c.27-1.041.613-2.063 1.028-3.055 1.03-2.441 2.528-4.663 4.191-6.722 4.186-5.178 9.68-9.53 16.111-11.155C29.808-1.07 37.51.61 43.1 5.094c1.648 1.321 3.135 2.879 4.962 3.927a8.591 8.591 0 0 0 .928.466c.334.144.677.264 1.028.359 1.11.3 2.27.327 3.378-.046.09-.031.18-.064.27-.1.19-.076.37-.147.545-.212 1.191-.447 2.108-.664 3.556-.586a34.138 34.138 0 0 1 10.445 2.268c8.414 3.245 15.647 9.689 19.405 17.97.1.219.197.44.29.661 2.241 5.272 3.05 11.457.578 16.597z" fill="#F2F2F2"/>
        <path fill="#CACACA" d="M5.34 43.162v.052l-.02.023z"/>
        <path d="m20.129 48.223-.794.27v-.27h.794z" fill="#FFF"/>
        <path fill="#E4E4E4" d="M48.06 4.947h1.957v4.929H48.06z"/>
        <path d="M53.395 9.488v49.615a44.805 44.805 0 0 1-8.715-2.209c-.124-.044-.248-.09-.37-.135a44.146 44.146 0 0 1-4.053-1.747 48.13 48.13 0 0 1-1.993-1.043 40.16 40.16 0 0 1-1.501-.88V9.487h16.632z" fill="#E4E4E4"/>
        <path d="M60.103 9.488V59.6a44.194 44.194 0 0 1-3.058-.102 44.65 44.65 0 0 1-3.58-.385l-.07-.01V9.487h6.708z" fill="#CACACA"/>
        <path fill="#FFF" d="M39.768 14.417h2.516v2.535h-2.516zM43.821 14.417h2.516v2.535h-2.516zM47.874 14.417h2.516v2.535h-2.516zM39.837 20.191h2.516v2.535h-2.516zM43.891 20.191h2.516v2.535h-2.516zM47.944 20.191h2.516v2.535h-2.516zM39.907 25.965h2.516V28.5h-2.516zM43.96 25.965h2.516V28.5H43.96zM48.014 25.965h2.516V28.5h-2.516zM39.977 31.739h2.516v2.535h-2.516zM44.03 31.739h2.516v2.535H44.03zM48.083 31.739h2.516v2.535h-2.516zM40.047 37.514h2.516v2.535h-2.516zM44.1 37.514h2.516v2.535H44.1zM48.153 37.514h2.516v2.535h-2.516zM40.117 43.288h2.516v2.535h-2.516zM44.17 43.288h2.516v2.535H44.17zM48.223 43.288h2.516v2.535h-2.516zM40.187 49.062h2.516v2.535h-2.516zM44.24 49.062h2.516v2.535H44.24zM48.293 49.062h2.516v2.535h-2.516zM42.772 54.836v1.316a44.88 44.88 0 0 1-1.275-.553c-.416-.19-.83-.385-1.24-.587v-.176h2.515zM46.826 54.836v2.535h-.764c-.463-.151-.924-.31-1.382-.477-.124-.044-.248-.09-.37-.135v-1.923h2.516zM48.363 54.836h2.516v2.535h-2.516z"/>
        <path fill="#E4E4E4" d="M70.865 30.049h1.957v2.921h-1.957z"/>
        <path d="M74.359 32.72v24.483c-4.572 1.609-9.41 2.395-14.256 2.398-.792 0-1.584-.02-2.376-.062V32.72h16.632z" fill="#E4E4E4"/>
        <path d="M81.067 32.72v21.358a32.693 32.693 0 0 1-3.98 2.053c-.897.392-1.806.75-2.728 1.072V32.72h6.708z" fill="#CACACA"/>
        <path fill="#FFF" d="M61.011 37.514h2.516v2.535h-2.516zM65.065 37.514h2.516v2.535h-2.516zM69.118 37.514h2.516v2.535h-2.516zM61.081 43.288h2.516v2.535h-2.516zM65.134 43.288h2.516v2.535h-2.516zM69.188 43.288h2.516v2.535h-2.516zM61.151 49.062h2.516v2.535h-2.516zM65.204 49.062h2.516v2.535h-2.516zM69.257 49.062h2.516v2.535h-2.516zM61.221 54.836h2.516v2.535h-2.516zM65.274 54.836h2.516v2.535h-2.516zM69.327 54.836h2.516v2.535h-2.516z"/>
        <path d="M59.696 60.373s.895 3.207 4.643 3.061c3.748-.146 5.368-3.12 5.368-3.12l-10.011.059z" fill="#3F3D56"/>
        <path fill="#2F2E41" d="M8.048 47.865 6.977 49.84l.174 3.71 25.66 7.682 11.173 1.385L41.8 49.19l-7.644-1.364-11.468.33-9.722-1.807z"/>
        <path d="M11.62 60.869h-.663a3.352 3.352 0 0 1-3.051-1.951c-1.021-2.247-.719-5.353-.714-5.397.231-2.685 1.691-4.437 3.634-4.358 2.144.087 3.972 7.561 4.05 7.88a2.806 2.806 0 0 1-.097 1.615 3.344 3.344 0 0 1-3.16 2.21zM38.631 66a2.316 2.316 0 0 1-.338-.033 5.243 5.243 0 0 1-3.955-3.034 42.405 42.405 0 0 1-.768-1.791c-.968-2.41-.157-6.621 1.162-8.252 1.163-1.439 2.334-1.427 4.107-1.41l.566.004c1.968.003 4.05 7.299 4.733 9.696l.134.467c.108.365.095.8-.037 1.296-.418 1.561-1.793 2.72-3.422 2.882-1.17.116-1.904.175-2.182.175z" fill="#3F3D56"/>
        <path d="M7.15 53.55s-.752-3.382.377-5.685l1.137-2.77 4.298 4.023.981 6.296 16.818 2.568s-1.042-10.321 5.498-10.73c6.539-.408 9.642 10.73 9.642 10.73l3.263 2.39 22.742-1.69s.402 1.108-.175 1.69c-.577.584-28.18 2.392-28.18 2.392s-1.39-13.82-6.887-12.538c-5.498 1.283-3.854 11.007-3.854 11.007L13.17 57.75s-.637-9.389-3.877-9.389c-3.241 0-2.141 5.19-2.141 5.19zM11.026 41.792l3.705-5.852 15.799-.933 17.534.233 8.16 7.639-25.231 1.458-20.312-1.108z" fill="#3F3D56"/>
        <path d="M11.026 41.792s-3.152.066-3.5 6.073c0 0 3.357-6.123 6.25 7.522l17.274 2.828s-.636-11.37 5.903-10.496c6.54.875 8.102 11.313 8.102 11.313s1.273 2.565 8.275 2.157c7.002-.408 17.477-1.05 18.576-2.507 0 0 2.546-8.689-5.382-14.287l-10.3-1.516-23.322.466-21.876-1.553z" fill="#71D43E"/>
        <path d="M18.927 45.882h-1.968a.405.405 0 0 1-.352-.204.41.41 0 0 1 0-.409.405.405 0 0 1 .352-.203h1.968c.223 0 .403.183.403.408 0 .225-.18.407-.403.408z" fill="#CACACA"/>
        <ellipse fill="#FFF" cx="48.874" cy="57.282" rx="1.273" ry="1.283"/>
        <path d="M48.243 50.987c-.871 0-1.912-.375-2.843-1.098-1.644-1.275-2.334-3.16-1.54-4.199.795-1.04 2.78-.847 4.423.428.794.617 1.392 1.392 1.684 2.182.293.795.242 1.512-.145 2.018-.344.45-.912.67-1.579.67zM70.867 49.358c-.641 0-1.793-.654-2.933-1.716-.684-.636-1.25-1.318-1.595-1.92-.35-.613-.43-1.073-.225-1.297.206-.224.667-.18 1.3.124.623.298 1.343.813 2.027 1.45 1.442 1.343 2.241 2.756 1.819 3.217a.51.51 0 0 1-.393.142zM17.086 41.791c-.014 0-.027 0-.041-.002l-4.185-.392a.45.45 0 0 1-.361-.25.457.457 0 0 1 .02-.44l2.36-3.834a.45.45 0 0 1 .363-.214l3.12-.139a.449.449 0 0 1 .375.174c.09.116.118.269.077.41l-1.296 4.363a.452.452 0 0 1-.432.324zM28.113 42.69a1.28 1.28 0 0 1-.125-.007l-7.234-.718a1.261 1.261 0 0 1-.916-.544 1.28 1.28 0 0 1-.179-1.057l1.04-3.848a1.26 1.26 0 0 1 1.175-.937l5.839-.205c.656-.02 1.22.468 1.298 1.125l.482 4.188c.016.14.01.28-.02.418l-.127.583c-.127.584-.64 1-1.233 1.001zM33.759 42.892a.943.943 0 0 1-.914-.732l-1.276-5.558a.95.95 0 0 1 .18-.801.935.935 0 0 1 .733-.357h15.134c.253 0 .496.104.673.287l4.943 5.136a.95.95 0 0 1 .194 1.016.938.938 0 0 1-.846.585l-18.8.423h-.021z" fill="#FFF"/>
        <path d="m14.602 36.144.13-.204s.752-2.1 11.11-2.45c10.359-.35 20.023-.174 22.222 1.75l-17.882-.058-15.103 1.05-.477-.088z" fill="#71D43E"/>
        <path d="M9.697 51.101c-1.087 0-1.968 1.828-1.968 4.082 0 2.254.881 4.082 1.968 4.082 1.086 0 1.967-1.828 1.967-4.082 0-2.254-.88-4.082-1.967-4.082zm.087.875c.24 0 .434.47.434 1.05 0 .58-.195 1.049-.434 1.049-.24 0-.434-.47-.434-1.05 0-.58.194-1.05.434-1.05zm.26 3.207c0 .193-.13.35-.29.35-.16 0-.289-.157-.289-.35 0-.193.13-.35.29-.35.16 0 .289.157.289.35zm-1.512.225c-.372.028-.683-.075-.695-.23-.012-.157.28-.307.652-.336.372-.03.683.074.695.23.012.156-.28.307-.652.336zm1.252 2.982c-.24 0-.434-.47-.434-1.05 0-.58.194-1.05.434-1.05s.434.47.434 1.05c0 .58-.195 1.05-.434 1.05zm1.12-2.982c-.371.028-.683-.075-.695-.23-.012-.157.28-.307.652-.336.373-.03.684.074.696.23.012.156-.28.307-.652.336zM37.185 53.842c-1.726 0-3.125 2.336-3.125 5.219 0 2.882 1.399 5.219 3.125 5.219 1.725 0 3.125-2.337 3.125-5.22 0-2.882-1.4-5.218-3.125-5.218zm-1.867 5.61c-.504.04-.926-.1-.942-.312-.016-.211.379-.415.883-.454.504-.04.926.1.942.312.016.212-.38.415-.883.454zm1.868 3.982c-.324 0-.587-.636-.587-1.422 0-.785.263-1.421.587-1.421.325 0 .588.636.588 1.421 0 .786-.263 1.422-.588 1.422zm-.464-4.344c0-.31.207-.56.463-.56.255 0 .463.25.463.56 0 .31-.208.56-.463.56-.256 0-.463-.25-.463-.56zm.464-1.5c-.324 0-.587-.637-.587-1.423 0-.785.263-1.421.587-1.421.325 0 .588.636.588 1.421 0 .786-.263 1.422-.588 1.422zm1.982 1.746c-.504.039-.926-.1-.942-.312-.016-.212.38-.415.883-.455.504-.039.926.101.942.313.017.211-.379.415-.883.454z" fill="#E4E4E4"/>
        <path d="m26.247 43.404.695 1.633s1.157.466 1.91-1.108l-1.525-1.537-1.08 1.012z" fill="#CACACA"/>
        <path d="M25.293 43.783c-1.245 0-2.257-.68-2.257-1.516s1.012-1.516 2.257-1.516c1.244 0 2.256.68 2.256 1.516s-1.012 1.516-2.256 1.516z" fill="#CACACA"/>
        <path d="m68.81 49.118-12.938.382s-2.832.8-3.12 3.087c0 0 .404 1.867 1.444 1.867s16.99-.838 16.99-.838 1.04-1.601.173-2.744c-.867-1.144-2.549-1.754-2.549-1.754z" fill="#3F3D56"/>
        <path fill="#E4E4E4" d="m54.757 50.353 15.173-.506.006.175-15.173.505zM53.98 51.155l16.502-.754.008.175-16.502.753zM53.363 52.112l17.697-.958.01.175-17.698.957z"/>
        <g transform="translate(0 29.297)">
            <path d="M9.605 17.981a.798.798 0 0 1 .254-1.188l-.164-1.805 1.064-.369.196 2.553a.8.8 0 0 1-.318 1.01.787.787 0 0 1-1.032-.2z" fill="#FFB8B8"/>
            <path d="M10.747 7.622s.73-1.544 1.38-1.001c.648.542-.89 5.11-.89 5.11l-.234 4.432-1.234-.124-.348-4.319 1.326-4.098z" fill="#E6E6E6"/>
            <path fill="#FFB8B8" d="m.952 30.47.915.746 3.294-3.203-1.35-1.102z"/>
            <path d="m.96 29.978 1.803 1.47c.635.518.733 1.456.219 2.095l-.03.038L0 31.173l.96-1.195z" fill="#2F2E41"/>
            <path fill="#FFB8B8" d="M13.675 32.542h1.178l.56-4.578h-1.738z"/>
            <path d="M13.374 32.155h2.32c.816 0 1.478.667 1.478 1.49v.048h-3.798v-1.538zM15.741 11.081s2.21 2.71 1.73 5.421c-.48 2.711-.865 4.744-.865 4.744l-.768 6.099s.288 1.66-.096 2.089c0 0 .576 1.009-.48 1.396-1.057.387-1.628-.134-1.628-.134s-.775-1.124-.294-1.414l.202-11.97-7.696 10.13s-.141 1.231-1.127 1.245l-1.179.884-1.345-.774.673-.872s-.384-.968.48-1.161l4.996-6.583 1.249-3.388s.672-2.614 2.498-3.68v-1.132l3.65-.9z" fill="#2F2E41"/>
            <path d="M11.947 6.386a1.825 1.825 0 0 1 2.418-.344l.08.053a7.158 7.158 0 0 1 1.657 3.44l.36 1.982-4.515.985-1.059-3.678a2.084 2.084 0 0 1 1.059-2.438z" fill="#E6E6E6"/>
            <path d="M19.365 18.403a.904.904 0 0 1-.556-.525.914.914 0 0 1 .042-.767l-1.302-1.606.775-1.036 1.808 2.294c.39.246.535.745.34 1.163a.903.903 0 0 1-1.107.477z" fill="#FFB8B8"/>
            <path d="M13.868 7.838s-.288-1.936.673-1.84c.96.097 2.401 5.422 2.401 5.422l2.594 4.356-1.249.678-3.074-3.872-1.345-4.744z" fill="#E6E6E6"/>
            <path d="M15.627 5.007h-4.574a.357.357 0 0 1-.355-.357V2.663A2.653 2.653 0 0 1 13.34 0a2.653 2.653 0 0 1 2.642 2.663V4.65a.357.357 0 0 1-.355.357z" fill="#2F2E41"/>
            <ellipse fill="#FFB8B8" cx="13.883" cy="3.009" rx="1.937" ry="1.952"/>
            <path d="M16.607 2.861H14.17l-.025-.404-.125.404h-.375l-.05-.802-.247.802h-.727v-.04c0-1.16.818-2.106 1.822-2.106h.344c1.005 0 1.822.945 1.822 2.107v.04z" fill="#2F2E41"/>
            <path d="M14.27 5.378a.582.582 0 0 1-.089-.007l-2.902-.45V1.875c0-.648.522-1.173 1.165-1.173h2.03l-.079.081c-1.1 1.129-.271 2.96.32 3.95a.393.393 0 0 1-.039.463.525.525 0 0 1-.406.183z" fill="#2F2E41"/>
        </g>
    </g>
</svg>
