<svg width="53" height="60" xmlns="http://www.w3.org/2000/svg">
    <g fill-rule="nonzero" fill="none">
        <g fill="#FFDA2D">
            <path d="M28.267 0h-3.534c0 7.77-6.324 14.18-14.133 14.18v3.515c7.809 0 14.133 6.293 14.133 14.063h3.534c0-7.77 6.324-14.063 14.133-14.063V14.18c-7.809 0-14.133-6.41-14.133-14.18zM42.4 35.273h-3.533c0 5.801-4.77 10.547-10.6 10.547v3.516c5.83 0 10.6 4.863 10.6 10.664H42.4c0-5.8 4.77-10.664 10.6-10.664V45.82c-5.83 0-10.6-4.746-10.6-10.547zM10.6 28.242H7.067c0 3.867-3.18 7.031-7.067 7.031v3.516c3.887 0 7.067 3.164 7.067 7.031H10.6c0-3.867 3.18-7.03 7.067-7.03v-3.517c-3.887 0-7.067-3.164-7.067-7.03zM17.667 49.336H21.2v3.516h-3.533z"/>
        </g>
        <path fill="#FDBF00" d="M45.933 28.242h3.534v3.516h-3.534z"/>
        <path fill="#FFDA2D" d="M3.533 7.148h3.534v3.516H3.533z"/>
        <path fill="#FDBF00" d="M38.867 0H42.4v3.516h-3.533zM17.667 35.273v3.516c-3.887 0-7.067 3.164-7.067 7.031H8.833V28.242H10.6c0 3.867 3.18 7.031 7.067 7.031zM42.4 14.18v3.515c-7.809 0-14.133 6.293-14.133 14.063H26.5V0h1.767c0 7.77 6.324 14.18 14.133 14.18zM53 45.82v3.516c-5.83 0-10.6 4.863-10.6 10.664h-1.767V35.273H42.4c0 5.801 4.77 10.547 10.6 10.547z"/>
    </g>
</svg>
