<svg width="90" height="49" xmlns="http://www.w3.org/2000/svg">
    <g fill-rule="nonzero" fill="none">
        <path d="M12.103 25.54h-2.88c-.212 0-.383.17-.383.38v1.259c0 .21.171.38.382.38H9.7v1.887h1.925v-1.887h.478c.21 0 .381-.17.381-.38v-1.26c0-.21-.17-.38-.381-.38z" fill="#64BB38"/>
        <path d="M14.987 37.062a14.702 14.702 0 0 1-2.576-8.743.311.311 0 0 0-.243-.31v-.545H9.126v.537h-.042a.313.313 0 0 0-.311.334c.24 3.327-.57 6.31-2.428 8.95a.854.854 0 0 0-.156.519l.333 10.246a.889.889 0 0 0 .883.856h6.88a.89.89 0 0 0 .884-.87l.128-9.95a1.79 1.79 0 0 0-.31-1.024z" fill="#F2F2F2"/>
        <path d="M11.502 25.95c0 .453-.369.82-.824.82a.822.822 0 0 1-.824-.82" fill="#000" opacity=".2"/>
        <path d="M13.898 40.465h-.833a2.184 2.184 0 0 0-2.161-1.846c-1.08 0-1.997.784-2.161 1.846h-.834a.616.616 0 0 0-.607.706l.905 5.858h5.196l1.1-5.839a.61.61 0 0 0-.605-.725z" fill="#64BB38"/>
        <path fill="#E6E6E6" d="m83.914 31.05-.2 7.954-.247 9.864h-8.425l-.29-11.557-.157-6.262z"/>
        <path fill="#64BB38" d="M78.621 26.817h1.193v15.74h-1.193z"/>
        <path d="m83.318 37.043-.226 11.306h-7.68l-.263-13.246a5.252 5.252 0 0 1 4.137.567c1.283.755 2.725 1.162 4.032 1.373z" fill="#F2F2F2"/>
        <path fill="#E6E6E6" d="M76.219 38.316h1.095v1.09h-1.095zM76.965 36.088h1.095v1.09h-1.095zM79.53 36.981l.88.65-.652.875-.88-.65zM81.508 38.912l.88.65-.652.875-.88-.65zM78.153 40.026l.88.65-.652.875-.88-.65z"/>
        <circle fill="#3F3D56" cx="81.603" cy="35.43" r="1"/>
        <circle fill="#3F3D56" cx="77.055" cy="33.945" r="1"/>
        <circle fill="#3F3D56" cx="80.857" cy="32.386" r="1"/>
        <ellipse fill="#64BB38" cx="45.051" cy="24.4" rx="24.502" ry="24.4"/>
        <path d="M45.051 42.21c-8.532 0-15.875-6.002-17.54-14.335-1.664-8.334 2.814-16.677 10.697-19.929 7.882-3.251 16.974-.505 21.714 6.56a17.754 17.754 0 0 1-2.224 22.487A17.805 17.805 0 0 1 45.05 42.21zm0-34.521c-9.253 0-16.78 7.496-16.78 16.711 0 9.215 7.527 16.711 16.78 16.711 9.254 0 16.782-7.496 16.782-16.711 0-9.215-7.528-16.711-16.782-16.711z" fill="#000" opacity=".2"/>
        <ellipse fill="#F2F2F2" cx="45.051" cy="24.4" rx="17.333" ry="17.26"/>
        <path d="M32.162 17.498a2.183 2.183 0 0 1 .114-2.189 2.203 2.203 0 0 1 3.806.201l4.897 9.576a2.183 2.183 0 0 1-.114 2.19 2.203 2.203 0 0 1-3.807-.202l-4.896-9.576z" fill="#FF6584"/>
        <path d="m32.708 18.566-.226-.442c1.128-.872 2.452-1.514 3.92-1.988l.226.442c-1.589.33-2.94.94-3.92 1.988zM33.762 20.629l-.226-.442c1.128-.873 2.453-1.515 3.92-1.988l.227.442c-1.589.33-2.94.939-3.92 1.988zM34.817 22.691l-.226-.442c1.128-.872 2.453-1.514 3.92-1.988l.227.442c-1.59.33-2.94.94-3.92 1.988zM35.872 24.754l-.226-.442c1.128-.873 2.452-1.515 3.92-1.988l.226.442c-1.588.33-2.94.939-3.92 1.988zM36.927 26.816l-.226-.442c1.128-.872 2.452-1.514 3.92-1.988l.226.442c-1.589.33-2.94.94-3.92 1.988z" fill="#000" opacity=".2"/>
        <path d="M28.488 21.083a2.183 2.183 0 0 1 .114-2.189 2.203 2.203 0 0 1 3.806.201l4.897 9.576a2.186 2.186 0 0 1-.963 2.944 2.204 2.204 0 0 1-2.957-.956l-4.897-9.576z" fill="#FF6584"/>
        <path d="m29.034 22.151-.226-.442c1.128-.872 2.452-1.514 3.92-1.988l.226.442c-1.588.33-2.94.94-3.92 1.988zM30.089 24.214l-.226-.442c1.128-.873 2.452-1.515 3.92-1.988l.226.442c-1.589.33-2.94.939-3.92 1.988zM31.143 26.276l-.226-.442c1.128-.872 2.453-1.514 3.92-1.988l.227.442c-1.589.33-2.94.94-3.92 1.988zM32.198 28.339l-.226-.442c1.128-.873 2.453-1.515 3.92-1.988l.226.442c-1.588.33-2.94.939-3.92 1.988zM33.253 30.401l-.226-.442c1.128-.872 2.452-1.514 3.92-1.988l.226.442c-1.589.33-2.94.94-3.92 1.988z" fill="#000" opacity=".2"/>
        <path d="M56.633 24.95h.015a2.624 2.624 0 0 0 2.457-1.64 8.497 8.497 0 0 0 .6-3.198c-.027-4.634-3.813-8.435-8.465-8.5-4.086-.057-7.646 2.76-8.514 6.736a8.544 8.544 0 0 0 4.938 9.647 2.61 2.61 0 0 0 2.89-.533 8.578 8.578 0 0 1 6.079-2.513z" fill="#E6E6E6"/>
        <ellipse fill="#F9A825" cx="52.221" cy="19.536" rx="2.836" ry="2.824"/>
        <circle fill="#3F3D56" cx="46.057" cy="18.885" r="1"/>
        <circle fill="#3F3D56" cx="35.027" cy="19.199" r="1"/>
        <circle fill="#3F3D56" cx="47.837" cy="15.437" r="1"/>
        <circle fill="#3F3D56" cx="47.828" cy="25.028" r="1"/>
        <circle fill="#3F3D56" cx="54.446" cy="14.75" r="1"/>
        <circle fill="#3F3D56" cx="32.859" cy="23.851" r="1"/>
        <circle fill="#3F3D56" cx="35.301" cy="28.637" r="1"/>
        <ellipse fill="#FF6584" cx="50.645" cy="29.264" rx="1.261" ry="1.255"/>
        <path d="M51.59 29.343c0 .52-.423.941-.945.941a.943.943 0 0 1-.945-.941M49.7 29.186c0-.52.423-.942.945-.942s.946.422.946.942" fill="#000" opacity=".2"/>
        <circle fill="#FF6584" cx="50.173" cy="28.833" r="1"/>
        <circle fill="#FF6584" cx="50.645" cy="28.676" r="1"/>
        <circle fill="#FF6584" cx="50.645" cy="29.696" r="1"/>
        <circle fill="#FF6584" cx="51.118" cy="29.068" r="1"/>
        <circle fill="#FF6584" cx="51.039" cy="29.931" r="1"/>
        <circle fill="#FF6584" cx="50.094" cy="29.539" r="1"/>
        <ellipse fill="#FF6584" cx="53.166" cy="25.891" rx="1.261" ry="1.255"/>
        <path d="M54.112 25.97c0 .52-.424.94-.946.94a.943.943 0 0 1-.945-.94M52.22 25.812c0-.52.424-.941.946-.941s.946.421.946.941" fill="#000" opacity=".2"/>
        <circle fill="#FF6584" cx="52.694" cy="25.459" r="1"/>
        <circle fill="#FF6584" cx="53.166" cy="25.302" r="1"/>
        <circle fill="#FF6584" cx="53.166" cy="26.322" r="1"/>
        <circle fill="#FF6584" cx="53.639" cy="25.695" r="1"/>
        <circle fill="#FF6584" cx="53.56" cy="26.558" r="1"/>
        <circle fill="#FF6584" cx="52.615" cy="26.165" r="1"/>
        <ellipse fill="#71D43E" cx="55.687" cy="27.617" rx="1.261" ry="1.255"/>
        <path d="M56.633 27.695c0 .52-.423.942-.946.942a.943.943 0 0 1-.945-.942M54.742 27.538c0-.52.423-.941.945-.941.523 0 .946.421.946.941" fill="#000" opacity=".2"/>
        <circle fill="#71D43E" cx="55.215" cy="27.185" r="1"/>
        <circle fill="#71D43E" cx="55.687" cy="27.028" r="1"/>
        <circle fill="#71D43E" cx="55.687" cy="28.048" r="1"/>
        <circle fill="#71D43E" cx="56.16" cy="27.421" r="1"/>
        <circle fill="#71D43E" cx="56.081" cy="28.284" r="1"/>
        <circle fill="#71D43E" cx="55.136" cy="27.891" r="1"/>
        <ellipse fill="#71D43E" cx="49.385" cy="27.774" rx="1.261" ry="1.255"/>
        <path d="M50.33 27.852c0 .52-.423.942-.945.942a.943.943 0 0 1-.946-.942M48.44 27.695c0-.52.423-.941.945-.941s.945.421.945.941" fill="#000" opacity=".2"/>
        <circle fill="#71D43E" cx="48.912" cy="27.342" r="1"/>
        <circle fill="#71D43E" cx="49.385" cy="27.185" r="1"/>
        <circle fill="#71D43E" cx="49.385" cy="28.205" r="1"/>
        <circle fill="#71D43E" cx="49.857" cy="27.578" r="1"/>
        <circle fill="#71D43E" cx="49.779" cy="28.441" r="1"/>
        <circle fill="#71D43E" cx="48.833" cy="28.048" r="1"/>
        <ellipse fill="#71D43E" cx="52.221" cy="28.323" rx="1.261" ry="1.255"/>
        <path d="M53.166 28.401a.94.94 0 0 1-.472.816.949.949 0 0 1-.946 0 .94.94 0 0 1-.473-.816M51.275 28.244a.94.94 0 0 1 .473-.815.949.949 0 0 1 .946 0 .94.94 0 0 1 .472.815" fill="#000" opacity=".2"/>
        <circle fill="#71D43E" cx="51.748" cy="27.891" r="1"/>
        <circle fill="#71D43E" cx="52.221" cy="27.734" r="1"/>
        <circle fill="#71D43E" cx="52.221" cy="28.754" r="1"/>
        <circle fill="#71D43E" cx="52.694" cy="28.127" r="1"/>
        <circle fill="#71D43E" cx="52.615" cy="28.99" r="1"/>
        <circle fill="#71D43E" cx="51.669" cy="28.597" r="1"/>
        <ellipse fill="#FF6584" cx="54.191" cy="29.657" rx="1.261" ry="1.255"/>
        <path d="M55.136 29.735c0 .52-.423.942-.945.942a.943.943 0 0 1-.946-.942M53.245 29.578c0-.52.423-.941.946-.941.522 0 .945.421.945.941" fill="#000" opacity=".2"/>
        <circle fill="#FF6584" cx="53.718" cy="29.225" r="1"/>
        <circle fill="#FF6584" cx="54.191" cy="29.068" r="1"/>
        <circle fill="#FF6584" cx="54.191" cy="30.088" r="1"/>
        <circle fill="#FF6584" cx="54.663" cy="29.46" r="1"/>
        <circle fill="#FF6584" cx="54.584" cy="30.324" r="1"/>
        <circle fill="#FF6584" cx="53.639" cy="29.931" r="1"/>
        <circle fill="#3F3D56" cx="37.98" cy="24.871" r="1"/>
        <path fill="#F9A825" d="m47.062 36.948-8.024-2.216.307-1.137 8.024 2.216z"/>
        <path d="M45.886 36.568c-2.748.524-5.571.524-8.32 0V35.39c2.755.455 5.566.455 8.32 0v1.18zM46.74 33.032c-2.747.524-5.57.524-8.318 0v-1.179c2.754.455 5.565.455 8.319 0v1.18z" fill="#F9A825"/>
        <path d="M49.617 34.447c-2.748.523-5.57.523-8.318 0v-1.18c2.754.455 5.564.455 8.318 0v1.18z" fill="#F9A825"/>
        <path d="M50.317 35.782c-2.748.524-5.57.524-8.319 0v-1.178c2.754.454 5.565.454 8.32 0v1.178zM52.757 37.528 44.549 38.9l-.19-1.163 8.207-1.373z" fill="#F9A825"/>
        <path d="M51.53 37.679a22.337 22.337 0 0 1-7.558 3.51l-.487-1.07a25.686 25.686 0 0 0 7.559-3.511l.487 1.071zM50.847 34.105a22.337 22.337 0 0 1-7.559 3.51l-.487-1.07a25.686 25.686 0 0 0 7.559-3.511l.487 1.071z" fill="#F9A825"/>
        <path d="M54.045 34.176a22.337 22.337 0 0 1-7.559 3.511L46 36.616a25.686 25.686 0 0 0 7.559-3.51l.487 1.07z" fill="#F9A825"/>
        <path d="M55.233 35.095a22.337 22.337 0 0 1-7.56 3.51l-.486-1.07a25.686 25.686 0 0 0 7.559-3.511l.487 1.07z" fill="#F9A825"/>
        <path fill="#00BF71" d="M44.894 32.795h1v1h-1zM46.076 39.621h1v1h-1zM39.773 32.795h1v1h-1zM48.912 37.659h1v1h-1zM49.148 35.384h1v1h-1zM42.588 34.002l.456.308-.177.26-.456-.309zM47.236 34.865l.456.308-.177.26-.456-.309zM41.563 36.355l.457.309-.177.26-.457-.309zM45.219 36.186l-.31.455-.26-.176.309-.455zM47.346 36.736l-.31.454-.26-.176.309-.455zM53.019 34.852l-.31.455-.26-.176.309-.455z"/>
        <path fill="#3F3D56" d="M0 48.774h90v1H0z"/>
    </g>
</svg>
