<svg width="50" height="50" xmlns="http://www.w3.org/2000/svg">
    <g fill="none" fill-rule="evenodd">
        <path d="M0 0h50v50H0z"/>
        <path d="M45.428 20.92H43.75v-.087H25v8.334h11.774C35.056 34.017 30.441 37.5 25 37.5c-6.903 0-12.5-5.597-12.5-12.5S18.097 12.5 25 12.5c3.186 0 6.085 1.202 8.293 3.166l5.892-5.893C35.465 6.305 30.487 4.167 25 4.167 13.495 4.167 4.167 13.495 4.167 25c0 11.505 9.328 20.833 20.833 20.833 11.505 0 20.833-9.328 20.833-20.833 0-1.397-.143-2.76-.405-4.08z" fill="#FFC107" fill-rule="nonzero"/>
        <path d="m6.569 15.303 6.845 5.02C15.266 15.738 19.75 12.5 25 12.5c3.186 0 6.085 1.202 8.293 3.166l5.892-5.893C35.465 6.305 30.487 4.167 25 4.167c-8.002 0-14.942 4.517-18.431 11.136z" fill="#FF3D00" fill-rule="nonzero"/>
        <path d="M25 45.833c5.381 0 10.27-2.059 13.968-5.408l-6.448-5.456A12.406 12.406 0 0 1 25 37.5c-5.419 0-10.02-3.455-11.753-8.277l-6.794 5.234C9.901 41.204 16.903 45.833 25 45.833z" fill="#4CAF50" fill-rule="nonzero"/>
        <path d="M45.428 20.92H43.75v-.087H25v8.334h11.774a12.542 12.542 0 0 1-4.257 5.803l.003-.002 6.448 5.456c-.457.415 6.865-5.007 6.865-15.424 0-1.397-.143-2.76-.405-4.08z" fill="#1976D2" fill-rule="nonzero"/>
    </g>
</svg>
