<svg width="332" height="170" xmlns="http://www.w3.org/2000/svg">
    <g transform="translate(.703 .97)" fill="none" fill-rule="evenodd">
        <path d="M77.013 15.46a10.96 10.96 0 0 0-.716-2.743 1.241 1.241 0 0 0-.631-.777 1.3 1.3 0 0 0-.627-.007l-3.215.492c-.269.012-.526.112-.733.285-.419.44-.007 1.15-.02 1.757-.014.683-.62 1.238-1.279 1.421a4.837 4.837 0 0 1-2.033-.025l-4.496-.699a7.412 7.412 0 0 0 3.401-2.27c.592-.7.906-2.008.052-2.34a2.099 2.099 0 0 0-.781-.063c-2.037.016-3.64-1.685-5.547-2.4a6.132 6.132 0 0 0-6.901 2.056l2.395.116c.225-.012.448.047.637.17.525.431-.127 1.26-.053 1.935.096.877 1.26 1.064 2.139 1.153.878.089 1.992.802 1.57 1.577-4.414 1.52-8.905-2.971-13.54-2.419-1.172.14-2.28.601-3.425.891-6.996 1.77-14.229-2.953-21.376-1.953-1.589.271-3.15.683-4.666 1.231-.972.32-1.987.665-2.694 1.405-.707.741-.976 2.008-.306 2.782a15.657 15.657 0 0 1-5.487-.521 3.074 3.074 0 0 1 1.58 2.709 32.555 32.555 0 0 0-8.34 2.543 14.047 14.047 0 0 0 1.727 2.3L0 26.408c1.232.31 1.87 1.99 1.153 3.04 1.278-.568 2.07-2.039 3.436-2.337.895-.195 1.806.17 2.655.515.85.344 1.783.677 2.662.42.88-.259 1.528-1.399.97-2.125a45.486 45.486 0 0 1 11.553-1.805c.302-.038.608.02.876.166.509.353.375 1.116.347 1.736-.027.62.456 1.433 1.01 1.154-.652.565-.095 1.628.53 2.222.624.594 1.377 1.413.995 2.185-.1.202-.27.363-.365.567-.284.6.166 1.3.697 1.7.531.398 1.182.677 1.55 1.229.37.552.202 1.519-.458 1.596l-1.874-2.38a4.88 4.88 0 0 0-1.267 2.4c1.988 1.625 2.287 4.933.623 6.888-.85 1-2.06 1.606-3.116 2.386-1.055.78-2.032 1.89-2.03 3.201.005 2.267-.18 4.373.67 6.475A99.746 99.746 0 0 0 26.03 66.94c.536.958 1.228 2.008 2.314 2.173a133.485 133.485 0 0 1-3.704-10.172c.715.002 1.54.06 1.96.638.347.48.273 1.132.38 1.714a5.31 5.31 0 0 0 .678 1.592l6.549 11.667c.543.967 1.166 2.005 2.203 2.397.664.25 1.431.203 2.042.563.479.283.8.784 1.289 1.05 1.38.753 3.298-.69 4.587.208.37.257.604.666.943.96 1.191 1.031 3.145.341 4.52 1.11.885.496 1.344 1.488 1.817 2.386 1.183 2.251 3.099 4.456 5.635 4.635.797.057 1.611-.094 2.39.083.78.177 1.546.857 1.42 1.646-.214 1.352.455 2.834.275 4.191-.327 2.473-3.835 3.56-4.136 6.036-.066.543.037 1.102-.092 1.633-.158.65-.646 1.18-.82 1.826-.329 1.226.549 2.445 1.513 3.27.964.824 2.115 1.534 2.642 2.688.557 1.22.283 2.642.465 3.97.395 2.9 2.9 5.05 5.479 6.437.785.423 1.629.832 2.137 1.564.664.957.597 2.218.819 3.36.543 2.8 2.899 5.105 2.966 7.956.047 2.025-1.079 3.863-1.751 5.775a13.468 13.468 0 0 0 1.1 11.17c.502.849 1.104 1.65 1.46 2.571.636 1.644.43 3.512 1.015 5.174.774 2.198 2.902 4.013 2.699 6.334.966 2.006 3.099 2.991 5.244 3.588l3.844 1.07c.736.205 1.505.412 2.254.264.75-.149 1.465-.771 1.446-1.535-1.885-.425-3.83-.877-5.385-2.026-1.554-1.149-2.618-3.194-2.029-5.035.274-.853.855-1.838.302-2.543-.316-.404-.895-.51-1.252-.878-.557-.575-.366-1.54.034-2.233.4-.692.98-1.312 1.141-2.095a2.187 2.187 0 0 0-1.025-2.275 5.435 5.435 0 0 0 1.903-1.221c.5-.572.732-1.452.338-2.102 1.169.148 2.549.22 3.316-.673.613-.714.57-1.782.329-2.691-.242-.91-.652-1.792-.664-2.733 2.696.128 5.398.036 8.08-.274a5.24 5.24 0 0 0-2.457-3.077c1.215-.205 2.321-1.66 2.705-2.83.384-1.17.286-2.445.049-3.654a1.96 1.96 0 0 1-.037-.957c.137-.436.565-.702.961-.93l6.028-3.462c.36-.18.686-.42.964-.711.632-.742.539-1.862.215-2.781-.323-.92-.841-1.783-.966-2.75-.372-2.89 2.721-4.963 3.765-7.684.41-1.067.493-2.228.573-3.368.085-1.226.091-2.649-.85-3.438-.901-.757-2.31-.588-3.254-1.292-.865-.646-1.164-1.9-2.109-2.42-.858-.474-1.934-.173-2.889-.396-1.68-.392-2.738-2.329-4.455-2.508-.968-.101-2.064.372-2.858-.192-.7-.497-.728-1.496-.86-2.344a6.545 6.545 0 0 0-5.283-5.3c-.999-.16-2.086-.099-2.936-.647-.86-.556-1.254-1.596-1.93-2.366-1.089-1.24-2.804-1.68-4.41-2.059l-6.536-1.536c-1.16-.273-2.656-.417-3.278.599a4.697 4.697 0 0 0-.388 1.22 3.777 3.777 0 0 1-3.552 2.673 4.2 4.2 0 0 0-2.477-1.916c-.662-.185-1.372-.206-2.004-.477a2.815 2.815 0 0 1-1.221-3.906 3.504 3.504 0 0 0-.6-4.215c-1.11-.997-2.718-1.238-4.208-1.139-.39-.851.262-1.812.965-2.431s1.557-1.227 1.71-2.152c.241-1.453-1.614-2.558-3.022-2.124-1.408.433-2.307 1.801-2.902 3.15-.34.774-.63 1.588-1.168 2.24-.538.653-1.404 1.12-2.223.911-1.16-.296-1.608-1.674-1.865-2.843-.344-1.57-.69-3.16-.618-4.764.072-1.604.613-3.252 1.796-4.338 1.928-1.77 4.885-1.596 7.487-1.314-.615-.692-.463-1.86.195-2.511a2.856 2.856 0 0 1 2.588-.636c.784.163 1.49.585 2.005 1.199.74.901.95 2.118 1.509 3.141.558 1.024 1.815 1.896 2.844 1.347.888-.474 1.029-1.706.808-2.688-.221-.982-.69-1.938-.61-2.942.152-1.915 2.137-3.068 3.89-3.857 1.752-.788 3.758-1.85 4.035-3.75.01-.373.08-.741.208-1.09.195-.31.465-.563.785-.738 5.113-3.38 10.312-6.8 16.156-8.647.304-.096.34.011.65-.064.433-.25.146-.944-.27-1.224-.416-.279-.971-.493-1.077-.983-.077-.36.135-.713.19-1.077.135-.895-.935-1.72-1.766-1.363-.47-.622.46-1.344 1.21-1.551 2.256-.621 4.571-1 6.907-1.128.27-.043.546.004.786.133.392.272.342.895.064 1.283-.278.388-.71.632-1.057.96a2.885 2.885 0 0 0-.748 2.902c1.22.62 2.545 1.258 3.895 1.04 1.35-.219 2.55-1.736 1.915-2.948-.591-1.128-2.367-1.383-2.672-2.62-.358-1.448 1.692-2.736 1.23-4.154-.202-.622-.821-.987-1.296-1.436a3.895 3.895 0 0 1-.853-4.319 4.914 4.914 0 0 1-4.31-1.349c-1.03-1.04-1.853-2.681-3.317-2.635-1.343.043-2.5 1.61-3.756 1.132-.31-.117-.635-.357-.934-.217a.772.772 0 0 0-.349.579c-.32 1.526.23 3.265-.602 4.584-.905 1.435-2.998 1.634-4.096 2.928-.595.702-.826 1.649-1.374 2.39-.547.74-1.71 1.21-2.366.565a3.262 3.262 0 0 0-.886-3.966 8.704 8.704 0 0 0-1.958-.952 11.608 11.608 0 0 1-2.186-1.219 2.154 2.154 0 0 1-.803-.859 1.957 1.957 0 0 1 .055-1.358 5.554 5.554 0 0 1 4.42-3.663c.874-.12 1.893-.077 2.471-.744.307-.352.468-.886.912-1.029.285-.057.58-.02.842.104l3.265 1.15c.365.164.766.23 1.163.191a.789.789 0 0 0 .682-.828c-.104-.543-.938-.803-.862-1.35a.9.9 0 0 1 .273-.46 11.674 11.674 0 0 1 9.259-3.656c.412.677-.24 1.479-.782 2.057-.542.578-.978 1.61-.322 2.055.268.137.567.204.869.196a7.591 7.591 0 0 1 2.314.702 44.495 44.495 0 0 1 3.32 1.611c-.096-.715-.187-1.469.084-2.138.271-.669 1.042-1.193 1.715-.933.649.251.982 1.11 1.673 1.189.922.105 1.285-1.257.9-2.101-.385-.845-1.147-1.551-1.21-2.477-.044-.625.194-1.4-.305-1.778a1.358 1.358 0 0 0-.589-.206l-12.456-2.292c-.74-.136-1.809-.032-1.841.72-.019.419.356.834.19 1.22-.177.411-.759.373-1.183.519-.657.226-.987 1.007-.924 1.699.116.688.382 1.342.78 1.915-.81-.34-2.037-.401-2.847-.74zM67.074 4.886a4.034 4.034 0 0 0-4.431 1.327c-.205.27-.377.642-.206.934.247.42.874.254 1.336.104.68-.243 1.42-.26 2.11-.05.435.149.823.412 1.26.556.432.18.93.108 1.292-.19.3-.304.318-.78.318-1.207a.971.971 0 0 0-.247-.798 1.269 1.269 0 0 0-.572-.169 1.971 1.971 0 0 1-1.154-.674M71.565 3.635a1.026 1.026 0 0 0-.991 1.445 4.16 4.16 0 0 0 1.658.108 1.417 1.417 0 0 0 1.159-1.062 2.668 2.668 0 0 1-1.89-.361M86.635 1.546c-1.47.313-2.896.798-4.252 1.445a3.195 3.195 0 0 1 2.04 3.209c-.057.262-.05.534.02.793.156.379.609.521 1.006.618a6.636 6.636 0 0 0 2.208.282 2.249 2.249 0 0 0 1.828-1.117c.108-.307.235-.607.38-.898.953-1.452 3.786.304 4.81-1.1.36-.495.328-1.239.798-1.63.243-.171.525-.279.82-.314 2.06-.409 4.14-.705 6.23-.887.992-.086 2.283-.442 2.291-1.437a17.258 17.258 0 0 0-11.008 1.481c-1.227.615-2.85 1.908-4.033 1.093-.442-.305-.42-1.127-1.03-1.47-.622-.35-1.447-.208-2.108-.068z" fill="#E7E7E7" fill-rule="nonzero"/>
        <path d="m98.842 3.83 1.752.336a2.27 2.27 0 0 0-2.363 2.46c1.64.548 3.43.015 5.158.088 1.728.073 3.74 1.307 3.444 3.012-.089.515-.387 1.03-.232 1.53.109.35.418.599.592.921.363.672.073 1.522-.386 2.133s-1.075 1.099-1.478 1.748c-1.001 1.615-.432 3.702.164 5.506.173.682.491 1.318.934 1.864.884.94 2.324 1.022 3.613 1.04.94.014 2.015-.032 2.608-.76.775-.95.233-2.43.744-3.545.463-1.012 1.644-1.446 2.714-1.754 1.96-.565 3.957-1.044 5.81-1.897 2.3-1.058 4.45-2.707 6.979-2.843.71-.038 1.436.045 2.12-.149.683-.194 1.332-.785 1.28-1.494-.044-.605-.556-1.05-.956-1.506-.4-.457-.715-1.158-.347-1.641l6.628-1.238c-.47-1.28-.836-2.967.244-3.8.39-.301.911-.421 1.243-.785.565-.62.28-1.687-.372-2.214-.652-.527-1.534-.649-2.37-.718-2.907-.242-5.83-.082-8.742.077l-17.076.936c-1.146.063-2.469-.033-3.52.358-.89.331-1.522.939-2.54 1.152-1.878.394-3.945.127-5.645 1.182zM130.23 17.678a.705.705 0 0 0-.51.116.644.644 0 0 0-.166.393 2.597 2.597 0 0 0 .377 1.859 1.82 1.82 0 0 0 1.666.799c.79-.1 1.37-.774 2.096-1.102 1.118-.506 5.865-1.294 2.581-3.069-1.131-.611-1.863-.071-2.755.331a6.269 6.269 0 0 1-3.289.673zM158.994 2.828a1.875 1.875 0 0 0-.912.794.801.801 0 0 0 .3 1.063c.143.051.295.076.447.07l1.56.047c.662.02 1.49.16 1.667.8.132.473-.163 1.082.194 1.421.153.119.337.19.53.207.514.132 1.05.15 1.571.05 1.134-.304.538-.996.896-1.613.546-.943.452-.372 1.415-.913.711-.399 1.63-1.123 1.037-2.14-1.033-1.77-7.181-.547-8.705.214zM189.768 1.938l-.905.12c-2.042.273-4.095.548-6.061 1.161.851.337 1.744.556 2.654.652.501.024 1 .095 1.487.21.869.26 1.744.927 2.583.585.52-.212.69-.754 1.121-1.04.298-.199 1.426-.52 1.552-.72 1.02-1.618-1.646-1.073-2.43-.968zM193.744 6.053a16.98 16.98 0 0 0-3.341 2.447c-.426.4-.86.897-.821 1.48.05.774.876 1.223 1.59 1.525l2.895 1.226c.35-.495.03-1.178-.334-1.665-.363-.486-.794-1.049-.633-1.634.183-.668.997-.895 1.68-1.01 1.112-.188 4.113-.173 3.753-1.966-.425-2.112-3.672-1.028-4.789-.403zM193.162 125.61c-.276.798-.302 1.738.175 2.435.535.781 1.605 1.072 2.531.874a4.56 4.56 0 0 0 2.35-1.51 8.093 8.093 0 0 0 1.352-2.074 16.18 16.18 0 0 0 1.002-3.666l.898-4.718c.201-1.054.193-4.287-1.745-3.234-.53.288-1.755 2.56-2.31 3.204-1 1.161-1.132 2.288-1.659 3.695-.66 1.761-1.984 3.23-2.594 4.995zM295.527 149.756a14.13 14.13 0 0 1-1.842-.877 15.524 15.524 0 0 0-.933 5.088l4.34-2.456c.652-.369 1.392-.882 1.378-1.632a.517.517 0 0 0-.24-.47.585.585 0 0 0-.304-.035c-.644.053-1.23.37-1.837.59-.607.22-1.317.337-1.874.01M318.42 151.213c-.477.13-.943.297-1.393.5-.995.507-1.673 1.469-2.569 2.136-.858.639-1.89.99-2.903 1.33-.298.264-.161.795.162 1.026.348.198.747.288 1.146.258 1.053.023 2.162.033 3.085-.475a9.727 9.727 0 0 0 1.452-1.153c1.078-.9 2.373-1.493 3.654-2.067a4.195 4.195 0 0 0 1.274-.761c.806-.794.862-2.018-.299-2.288-.938-.218-2.716 1.205-3.61 1.494zM328.534 144.606a3.62 3.62 0 0 0-1.108-2.966c-.012 1.093-.045 2.257-.66 3.16-.437.644-1.123 1.078-1.603 1.691-.48.614-.693 1.585-.13 2.123.36.274.798.425 1.25.43 1.12.132 2.416.206 3.201-.603.429-.442.637-1.096 1.16-1.42.195-.082.369-.207.51-.365.215-.343-.128-.795-.514-.919-.386-.123-.812-.065-1.2-.183-.388-.117-.744-.554-.545-.907M310.557 104.553a5.034 5.034 0 0 1-1.796.106c-.997-.183-1.773-.934-2.578-1.55a11.37 11.37 0 0 0-6.644-2.322c-2.187-.041-4.395.551-6.543.138.14.78.808 1.366 1.521 1.714.713.348 1.5.523 2.216.864a5.29 5.29 0 0 1 2.562 2.666c.23.538.375 1.124.725 1.594.714.96 2.068 1.172 3.262 1.093 1.558-.102 3.184-.55 4.633.03 1.109.444 1.902 1.414 2.828 2.169.925.754 2.229 1.314 3.291.77a5.442 5.442 0 0 1-3.765-5.237c1.042.096 4.045.059 3.883-1.712-.137-1.501-2.7-.485-3.595-.323zM296.921 116.766c.185-1.016 1.198-1.912.882-2.894-.218-.68-1.006-1.015-1.719-1.032-.713-.017-1.414.196-2.127.216-.465-.025-.93-.018-1.393.02-1.416.232-2.289 1.716-3.623 2.244-.812.32-1.723.26-2.567.481-1.915.504-3.127 2.314-4.466 3.773a15.939 15.939 0 0 1-8.09 4.718c-1.09.252-2.26.414-3.126 1.121-1.146.937-1.428 2.543-1.684 4a66.08 66.08 0 0 1-3.216 11.81l4.548.58c.865.11 1.76.218 2.594-.038a7.53 7.53 0 0 0 1.706-.908 17.033 17.033 0 0 1 6.655-2.403c1.19-.163 2.44-.193 3.557.25 1.118.442 2.077 1.446 2.17 2.645a2.794 2.794 0 0 1 2.793.68 4.854 4.854 0 0 1 1.333 2.66c.12.623.24 1.369.817 1.63.471.213 1.012-.017 1.527-.058 1.749-.14 3.2 1.899 4.918 1.548 1.844-.377 2.296-3.137 4.094-3.69 1.033-.318 2.482.068 2.976-.892.436-.847-.433-1.824-.344-2.773.11-1.167 1.488-1.663 2.55-2.16 3.66-1.718 5.397-6.644 3.623-10.277-1.05-2.153-3.119-3.848-3.5-6.212-.294-1.82.423-3.942-.737-5.374-.59-.728-1.59-1.13-1.94-2-.222-.547-.133-1.168-.252-1.746-.119-.578-.623-1.183-1.194-1.033-1.657.435-2.185 5.554-3.073 6.797-1.348 1.891-4.116.646-3.692-1.683zM266.295 106.487c-.567-.158-1.185-.315-1.727-.088-.543.227-.86 1.024-.424 1.419 3.406-.133 6.834-.265 10.211.198 3.892.533 7.743 1.853 11.652 1.465a59.298 59.298 0 0 0-6.797-1.577l-3.827-.731a29.586 29.586 0 0 0-3.107-.48c-2.183-.18-3.835.396-5.981-.206zM269.705 94.623c-.283-.024-.633-.044-.78.2-.14.231.02.538-.054.799-.103.356-.569.447-.936.398-.368-.048-.765-.164-1.09.013a.924.924 0 0 0-.357 1.049c.133.377.348.72.63 1.004.48.606 1.03 1.156 1.634 1.64 1.17.864 2.757 1.28 3.494 2.535.104.243.264.458.467.628.354.224.816.053 1.197-.12l1.336-.611c.24-.087.455-.233.625-.425.305-.414.117-1.003-.139-1.45-.256-.445-.584-.907-.529-1.419.098-.912 1.27-1.26 1.753-2.041.486-.787.17-1.8.226-2.723.065-1.08.743-2.483-.348-3.29-.927-.685-1.814-.052-2.48.705-1.404 1.595-2.068 3.323-4.649 3.108zM277.815 78.495c.456.873 1.407 1.395 1.904 2.245.54.922.478 2.113 1.063 3.007.6.917 1.808 1.403 2.144 2.446.368 1.138-.466 2.522.198 3.517a1.476 1.476 0 0 0 2.166.199 1.588 1.588 0 0 0-.066-2.216c-.393-.36-.958-.514-1.287-.933a1.957 1.957 0 0 1-.333-.812 5.313 5.313 0 0 1 .084-2.546c.088-.21.11-.443.064-.666-.148-.43-.73-.46-1.139-.66-.927-.453-.905-1.762-.743-2.782-.108.68-2.526-.475-2.78-.86-.502-.764-.228-2.237-.328-3.082-1.086.524-1.505 2.075-.947 3.143zM253.453 91.933c-.446-.5-1.118-1.023-1.716-.721-.457.23-.583.861-.404 1.34.218.465.554.865.974 1.16 1.247 1.03 2.59 1.957 3.678 3.153 1.946 2.14 2.978 5.026 5.095 6.997.426.457.99.762 1.604.868.617.058 1.31-.337 1.38-.953.06-.507-.294-.96-.64-1.336-.822-.895-1.722-1.718-2.499-2.653a2.23 2.23 0 0 1-.639-1.334c-.004-.503.455-1.03.943-.906-.593-.151-1.033-1.14-1.903-1.325-.728-.155-.904.295-1.77-.076-1.65-.708-2.946-2.92-4.103-4.214zM292.251 43.282c-.474-.14-.94-.307-1.395-.498-1.226-.368-2.848.533-2.684 1.803.108.843.893 1.412 1.327 2.143.643 1.085.471 2.462.133 3.677-.083.376-.24.732-.464 1.046-.312.331-.685.6-1.098.79a14.694 14.694 0 0 0-4.3 3.653 1.053 1.053 0 0 0-.26.489c-.058.429.373.74.617 1.098.54.794.15 1.863.203 2.823-.016.275.11.54.337.7.326.165.712-.116.889-.436.587-1.063.145-2.77 1.245-3.282.208-.097.46-.137.6-.32.22-.29.007-.72.119-1.067.168-.52.88-.544 1.426-.52a8.095 8.095 0 0 0 2.78-.37 1.85 1.85 0 0 0 .921-.534c.329-.41.3-.994.234-1.516a20.555 20.555 0 0 0-2.428-7.41c.966.123 2.018.23 2.852-.273.467-.282 1.028-1.126.796-1.7-.366-.908-1.028-.144-1.85-.296zM168.32 57.594c.115.621.23 1.274.026 1.872-.203.597-.843 1.097-1.447.913-.469-.142-.74-.613-1.073-.972-1.85-1.999-6.027-.842-7.17-3.314-.467-1.01-.15-2.218-.469-3.283a2.922 2.922 0 0 0-2.959-2.01 6.081 6.081 0 0 0-1.703.508 42.94 42.94 0 0 1-11.283 2.822 9.27 9.27 0 0 0-2.168.394c-1.59.577-2.676 2.05-3.449 3.554-.773 1.504-1.343 3.132-2.38 4.468-1.089 1.405-2.615 2.388-4.039 3.451a4.121 4.121 0 0 0-1.332 1.397c-.309.634-.291 1.37-.267 2.075l.29 8.556c.038 1.1.085 2.24.578 3.225.615 1.23 1.83 2.035 2.672 3.121a6.114 6.114 0 0 1 1.269 3.904c-.018.567-.074 1.237.367 1.592.268.174.582.265.902.26l11.573.947c2.036.167 4.292.44 5.62 1.992.628.732 1.132 1.784 2.093 1.863.412.033.813-.136 1.225-.168 1.04-.083 1.954.707 2.53 1.576a6.994 6.994 0 0 1 1.124 4.488c-.095.991-.402 1.956-.469 2.95-.252 3.782 2.954 7.068 3.017 10.859.036 2.23-1.022 4.312-2.054 6.289 1.665 2.523.302 5.882.965 8.832.629 2.798 2.962 4.988 3.543 7.797.266 1.286.282 2.868 1.415 3.53a3.226 3.226 0 0 0 1.602.32c3.332.04 6.627-.71 9.614-2.188 1.402-.696 2.855-1.734 3.1-3.28.197-1.247-.435-2.64.208-3.727.758-1.28 2.7-1.178 3.816-2.162 1.81-1.596.399-4.64 1.132-6.94.66-2.066 2.928-3.164 4.053-5.019a8.92 8.92 0 0 0 .942-2.552 36.41 36.41 0 0 0 .958-6.51c.03-1.334.128-2.664.295-3.988 1.212-7.533 8.66-12.578 11.078-19.815.231-.692.34-1.612-.275-2.003a1.761 1.761 0 0 0-1.171-.123l-5.335.673c-.663.083-1.365.161-1.974-.114-.608-.275-1.044-1.045-.722-1.63.906-1.64-.957-3.715-1.786-5.397a79.645 79.645 0 0 0-7.93-12.862 1.307 1.307 0 0 1-.348-.755l1.514.05c-.511-1.834-1.355-3.84-3.137-4.512-1.004-.378-2.115-.247-3.187-.188-3.068.167-6.357-.296-9.394-.766z" fill="#E7E7E7" fill-rule="nonzero"/>
        <path d="M177.717 16.265c.803.853 1.702 1.757 2.864 1.905 2.052.263 3.527-1.859 4.467-3.702a1.81 1.81 0 0 0 1.887 1.674c.507-.086.99-.275 1.42-.555a27.972 27.972 0 0 1 13.252-3.426 1.431 1.431 0 0 1 1.093-1.573c.942-.187 1.79.627 2.245 1.473.454.846.737 1.827 1.46 2.46.721.633 2.119.605 2.404-.312.274-.88-.643-1.63-1.405-2.15-.762-.519-1.565-1.48-1.052-2.245 3.892-.862 7.81-1.727 11.792-1.898a4.938 4.938 0 0 0 1.985-.342c.608-.298 1.09-.975.927-1.631a4.495 4.495 0 0 1-4.69-1.77c5.526-.456 11.404-.844 16.302 1.756.588 1.262-2.408 2.312-1.606 3.45.256.363.768.405 1.212.414 3.403.063 6.827.125 10.192-.389 1.23-.188 2.472-.453 3.707-.3 2.056.253 3.815 1.625 5.839 2.073.823.182 1.746.188 2.44-.291.695-.48.993-1.57.424-2.192 1.905-1.867 5.067-1.405 7.58-.51 2.513.893 4.894 2.335 7.554 2.534 1.907.143 3.841-.37 5.726-.044 1.185.205 2.287.732 3.444 1.055 2.19.612 4.506.483 6.779.513a47.495 47.495 0 0 1 16.925 3.363 5.032 5.032 0 0 1 1.882 1.112c.501.537.757 1.371.42 2.024l-5.569-.814c.525 1.033 1.882 1.21 2.985 1.565 1.102.357 2.245 1.574 1.583 2.525-1.195-.38-2.277.813-2.88 1.912-.604 1.099-1.34 2.415-2.59 2.482-1.122.06-2.477-.895-3.208-.043a21.873 21.873 0 0 1 2.577 4.12c.722 1.504 1.236 3.399.26 4.752a1.232 1.232 0 0 1-.658.51c-.797.202-1.314-.773-1.886-1.364-.72-.744-1.809-.955-2.784-1.304-.975-.35-2.002-1.036-2.078-2.069-.048-.643.292-1.24.542-1.834a7.066 7.066 0 0 0 .536-3.169c-.054-.872-.299-1.779-.925-2.388-.626-.609-1.707-.802-2.379-.244-.314.26-.565.677-.972.692-.72.028-1.272-1.227-1.851-.799.068.457-.027.922-.267 1.316-1.728 1.502-4.382.867-6.61 1.398-1.058.303-2.072.746-3.015 1.316a1.94 1.94 0 0 0-.861.724c-.279.54.028 1.232.518 1.591.52.319 1.104.518 1.71.584 2.715.514 5.47 1.31 7.614 3.054 2.143 1.744 3.55 4.627 2.87 7.306l-5.354-5.116c.204 2.148.319 4.302.346 6.462.035.422-.023.846-.17 1.243-.381.844-1.416 1.127-2.322 1.313a1.82 1.82 0 0 0-1.397 2.332c.322 1.05 1.125 1.868 1.86 2.684.736.816 1.46 1.743 1.556 2.837.096 1.094-.73 2.327-1.825 2.25-.83-.057-1.446-.8-1.8-1.554-.355-.753-.566-1.593-1.098-2.233-1.611-1.937-5.23-1.107-6.673-3.173a3.264 3.264 0 0 0-.675 3.106c.671-.42 1.59-.03 2.095.581.504.611.742 1.394 1.139 2.08.534.926 1.385 1.746 1.46 2.813-.02.403-.013.807.02 1.21.133.645.679 1.11 1.057 1.65.881 1.256.838 2.982.27 4.408-.568 1.426-1.588 2.617-2.599 3.772-1.765 2.017-3.566 4.023-5.658 5.699-.597.478-1.234.948-1.606 1.616-.372.668-.391 1.607.18 2.115-.408.02-1.142.222-1.55.242a36.06 36.06 0 0 1-.094-4.933c-1.614-.775-3.35 1.3-3.143 3.078.209 1.778 1.494 3.204 2.41 4.742.67 1.125 1.167 2.437.943 3.726-.223 1.29-1.374 2.48-2.678 2.366-2.075-.18-2.942-3.158-4.996-3.5a.84.84 0 0 0-.54.054c-.305.168-.358.576-.375.923-.085 1.705-.157 3.478.508 5.05.974 2.299 3.489 4.23 2.961 6.67-2.842-1.32-4.32-4.508-4.99-7.57-.671-3.061-.783-6.275-1.986-9.17-.913 1.171-2.833.203-3.667-1.025-.791-1.164-1.278-2.51-2.046-3.69-.768-1.18-1.943-2.237-3.35-2.302-1.474-.068-2.752.944-3.876 1.9-.925.786-1.874 1.603-2.415 2.69-.786 1.58-.58 3.444-.618 5.21-.041 1.908-.446 3.922-1.747 5.32-1.3 1.397-3.702 1.883-5.136.624-.75-.657-1.112-1.64-1.435-2.582a126.428 126.428 0 0 1-3.885-13.868c-.24 1.071-1.181 2.452-2.08 1.82a1.863 1.863 0 0 1-.479-.617c-1.676-2.84-4.78-4.544-7.915-5.565-3.136-1.022-6.435-1.498-9.536-2.621a24.154 24.154 0 0 1-4.947-2.464 3.89 3.89 0 0 0-.238 3.98c.688 1.217 2.245 1.922 3.577 1.496.689-.22 1.27-.698 1.953-.934.684-.236 1.6-.12 1.9.538.285.63-.147 1.393.067 2.05.327 1.002 1.838 1.08 2.367 1.991.393.679.07 1.58-.492 2.127-.561.547-1.31.848-1.996 1.229-2.223 1.236-3.804 3.347-5.747 4.989s-4.685 2.84-7 1.787c.551-2.795-2.778-4.847-3.39-7.63-.202-.915-.098-1.888-.386-2.78-.417-1.293-1.563-2.181-2.503-3.16a12.402 12.402 0 0 1-3.402-9.024c.05-1.15.262-2.318 0-3.44-.262-1.12-1.19-2.205-2.34-2.154-2.626.116-5.935.311-7.313-1.928-.492-.799-.706-1.97.005-2.581.501-.432 1.242-.392 1.9-.327l5.919.582c1.384.136 2.88.249 4.068-.475 1.188-.723 1.702-2.644.602-3.495-.803-.622-2.243-.589-2.477-1.578-.194-.823.718-1.758.225-2.446-.353-.494-1.147-.357-1.628.013-.48.37-.83.911-1.368 1.191-.944.492-2.073.024-3.089-.294s-2.378-.345-2.87.599c-.551 1.055.488 2.438-.058 3.495-.724 1.399-3.172.603-4.188 1.805-1.165 1.38.793 3.438.4 5.2a3.237 3.237 0 0 1-3.19-.178 3.098 3.098 0 0 1-1.338-2.885c.097-.793.51-1.602.233-2.352-.224-.606-.832-.966-1.397-1.279l-5.751-3.178c-.534.99.14 2.219.985 2.962.844.744 1.902 1.305 2.456 2.284a2.997 2.997 0 0 1-1.128 3.951.692.692 0 0 1-.57.1.795.795 0 0 1-.37-.498c-1.014-2.596-2.538-5.156-4.973-6.513-2.436-1.356-5.936-1.078-7.533 1.208-.38.542-.634 1.16-.964 1.735-1.756 3.048-5.52 4.492-9.037 4.398a1.794 1.794 0 0 1-.986-.232c-.568-.393-.543-1.225-.456-1.91l.37-2.909c.074-.584.181-1.23.643-1.594.652-.514 1.592-.19 2.421-.201a3.068 3.068 0 0 0 2.785-2.15 3.458 3.458 0 0 0-.962-3.438c-.38-.357-.891-.806-.69-1.288.162-.27.435-.453.746-.502 1.49-.433 3.065-.546 4.53-1.057 1.466-.51 2.887-1.555 3.234-3.068.107-.464.155-1.025.571-1.255.21-.088.434-.134.66-.135a3.212 3.212 0 0 0 2.756-3.348c.702-.49 1.686-.13 2.365.392.68.522 1.28 1.212 2.106 1.437 1.541.42 3.03-.945 4.627-.951.671-.003 1.366.234 1.998.007.64-.231 1.023-.869 1.514-1.34.492-.47 1.354-.758 1.808-.25l-.386-2.863a5.628 5.628 0 0 0 4.58-.828l-4.995-1.688a1.086 1.086 0 0 1-.467-.25c-.363-.39-.003-1 .293-1.444.706-1.064.825-2.815-.337-3.345-.793-.361-1.703.073-2.464.497l-3.646 2.033c-.116.693.732 1.085 1.257 1.552a2.107 2.107 0 0 1-1.374 3.682c.486.632.659 1.451.469 2.226l-2.453.176c-.275.056-.561 0-.796-.155-.262-.233-.227-.641-.287-.987-.147-.834-.964-1.419-1.797-1.568-.834-.15-1.686.042-2.512.232-.35.126-.735.117-1.08-.025a1.078 1.078 0 0 1-.426-.54c-.362-.877-.024-1.908.557-2.658.581-.75 1.377-1.3 2.091-1.924a12.188 12.188 0 0 0 3.625-5.621c1.35-.566 2.748-1.334 4.098-1.9a12.542 12.542 0 0 1 6.741-1.306l4.573.087c1.354.026 2.745.059 3.997.575 1.251.516 2.351 1.633 2.438 2.984a.916.916 0 0 1-.293.837 1.08 1.08 0 0 1-.578.13c-1.263.045-1.801.36-3.064.404zM141.268 30.597c.364-.345.505-.864.365-1.346a2.503 2.503 0 0 0-2.592.49 4.37 4.37 0 0 0-.694.917c-.601.98-1.133 2.152-.785 3.248.058.241.21.45.423.577.156.063.324.089.492.077.662 0 1.323-.041 1.98-.122.404-.05.872-.163 1.028-.539.205-.493-.291-1.051-.146-1.566.095-.23.239-.436.422-.605a.8.8 0 0 0 .25-.672c-.059-.241-.429-.378-.562-.168" fill="#E7E7E7" fill-rule="nonzero"/>
        <path d="M144.7 26.147a5.54 5.54 0 0 0-1.794-.113.783.783 0 0 0-.383.087.638.638 0 0 0-.235.341 1.695 1.695 0 0 0 .987 2.078c.215.05.422.132.612.245.507.394.184 1.2.28 1.834.108.714.798 1.312.672 2.023-.1.559-.698 1.002-.602 1.562.101.587.846.763 1.44.81.343.06.697.02 1.018-.117.322-.22.551-.552.643-.931a5.97 5.97 0 0 0 .301-2.248 2.131 2.131 0 0 0-.253-.992 5.539 5.539 0 0 0-.593-.678c-1.137-1.322.06-3.295-2.093-3.901z" fill="#E7E7E7" fill-rule="nonzero"/>
        <path d="M294.197 129.74s-87.073-49.982-124.56-40.512c0 0-79.444 8.55-88.65 27.359 0 0-25.255-78.918-34.462-81.549" stroke="#71D43E" stroke-width="2" opacity=".8"/>
        <path d="M80.986 116.587c14.6-38.933 146.13-82.075 146.13-82.075-18.677 4.735-57.478 54.716-57.478 54.716S87.563 29.514 46.525 35.038c0 0 180.723 5.919 247.672 94.702" stroke="#71D43E" stroke-width="2" opacity=".8"/>
        <circle fill="#71D43E" fill-rule="nonzero" cx="46.525" cy="35.038" r="3.814"/>
        <circle fill="#71D43E" fill-rule="nonzero" cx="80.986" cy="116.587" r="3.814"/>
        <circle fill="#71D43E" fill-rule="nonzero" cx="227.116" cy="34.512" r="3.814"/>
        <circle fill="#71D43E" fill-rule="nonzero" cx="294.197" cy="129.74" r="3.814"/>
        <circle fill="#71D43E" fill-rule="nonzero" cx="169.638" cy="89.228" r="3.814"/>
    </g>
</svg>
