<svg width="328" height="186" xmlns="http://www.w3.org/2000/svg">
    <g fill="none" fill-rule="evenodd">
        <path d="M36.775 169.837c.591 3.434 1.193 6.866 1.336 10.358-.793.21-.86 1.116-1.45 1.52-.417-3.805-.766-7.618-1.604-11.363.505-.396.99-.863 1.718-.515z" fill="#FDE857"/>
        <path d="M36.66 181.714c.224-.755.07-1.871 1.451-1.52.476 1.254.241 2.595.474 3.878-.503.204-.966.632-1.568.278-.123-.255.035-.574-.185-.806l-.172-1.83z" fill="#FDE84C"/>
        <path d="M34.59 167.208c.576-.217 1.383-.101 1.468-1.024.396 1.187.514 2.428.717 3.653-.612.041-1.07.596-1.718.515l-.468-3.144z" fill="#FEEB6F"/>
        <path d="M37.088 184.339c.525.059.918-.63 1.497-.267.017.336.03.673.054 1.009.037.525-.284.77-.722.886-.504.134-.755-.151-.871-.605-.11-.346-.165-.69.042-1.023z" fill="#FCE53E"/>
        <path d="m37.088 184.339-.042 1.023c-.426-.565-.136-1.213-.213-1.818.258.209.156.534.255.795z" fill="#FDFDFD"/>
        <path d="M21.836 152.78c-2.958-.24-5.673-1.138-8.04-2.977-.308-.885.416-1.236.923-1.606 1.514-1.107 3.082-2.14 4.789-2.748-1.66.475-3.431.712-5.241.58-.339-.024-.694-.083-.81-.499.167-.66.745-.918 1.245-1.23 2.71-1.689 5.617-2.96 8.61-4.05.725-.263 1.416-.22 2.118.037l2.706 1.547c.322-.648-.264-1.223-.109-1.813.174-.93.346-.987 1.503-.502l.56 2.322c-.99 1.572-2.681 1.694-4.012 2.065 2.608-.205 5.355-.962 8.124-1.595.566-.129.967-.54 1.42-.87 1.65-1.2 3.344-2.314 5.512-2.268 1.572.189 3.127.544 4.734.303.402-.06.997-.161 1.066.563-1.083 4.212-3.8 7.122-7.444 9.254-1.755 1.026-3.661 1.688-5.7 1.863-.891.077-.938.569-.768 1.25.392 1.571.78 3.144 1.17 4.716-.553.135-1.06.563-1.68.27-.41-1.636-.851-3.264-1.216-4.91-.175-.792-.54-.956-1.262-.684-1.488.562-3.05.802-4.621.989a20.26 20.26 0 0 1-3.577-.007z" fill="#FEE95E"/>
        <path d="m20.507 118.039.273-.038c2.06-.631 4.187-.94 6.304-1.298 2.344-.487 4.631-1.22 7.006-1.562.38.031.656.236.884.523a15.375 15.375 0 0 1-1.744 3.638c-1.795.226-3.472 1.047-5.352.9-3.197-.252-6.21.202-8.836 2.336-1.864 1.514-3.967 2.72-5.864 4.204a2.42 2.42 0 0 1-1.171.496c-2.396-.636-4.637-1.58-6.513-3.257-.129-.765.477-1.057.95-1.38 2.36-1.607 4.886-2.804 7.823-2.982-.311.064-.603.177-.79-.182.76-.826 1.842-.498 2.753-.776 1.425-.216 2.832-.555 4.277-.622z" fill="#FEEC68"/>
        <path d="M12.007 127.238c2.493-1.82 4.98-3.65 7.484-5.456 1.409-1.016 2.933-1.59 4.721-1.783 1.587-.17 3.113-.326 4.673.031.154.035.375.015.494-.074 1.176-.884 2.536-.628 3.851-.654-1.32 2.591-3.407 4.46-5.77 6.042-1.864 1.25-1.885 1.215-1.223 3.326.076.241.13.49.193.734-.443.404-.827.892-1.461 1.02-.188-.595-.383-1.187-.562-1.783-.204-.68-.623-.956-1.321-.742-.766.22-1.576-.114-2.334.194h-2.278c-.668-.3-1.393.013-2.07-.188-1.495-.03-2.943-.371-4.397-.667zM26.991 116.96c-1.529.326-3.061.637-4.584.987-.379.087-.908-.151-1.1.438-.066.2-.228.273-.368.09-.096-.124-.109-.313-.16-.474-.589-2.338-1.536-4.553-2.348-6.813-.117-.325-.247-.623-.23-.97.372-.359.793-.637 1.291-.79.806 1.266 1.02 2.786 1.817 4.275.803-2.414 1.6-4.679 3.129-6.576 1.768-.28 3.447.384 5.178.487.386.096.772.194 1.15.324.476.252.873.573.965 1.15a.696.696 0 0 1-.2.321c-2.7 1.463-5.535 2.62-8.41 3.688a296.83 296.83 0 0 0 8.93-3.507c.124-.028.25-.028.375-.008 1.22.873 2.652 1.507 3.36 2.963l-.034.524c-.371.519-.943.565-1.5.622-2.237.23-4.26 1.038-6.136 2.25-.43.277-.917.494-1.125 1.02z" fill="#FEEC6C"/>
        <path d="M19.705 95.196c1.276 2.164 1.905 4.518 2.068 7.01-.17.394-.513.562-.89.686-.205.068-.413.125-.62.18-2.08.56-4.12 1.624-6.228 1.608-2.095-.015-4.153-.985-6.287-1.256-.689-.617-.105-.987.304-1.316 1.167-.939 2.325-1.89 3.496-2.824 1.895-1.51 3.372-3.396 4.908-5.235.223-.266.411-.544.404-.917-.02-.933.476-.847 1.078-.538l.012-.01c.282 1.076 1.175 1.739 1.755 2.612z" fill="#FEEF8B"/>
        <path d="M20.507 118.039c-1.258.826-2.79.506-4.13.993-.85-.29-1.49-.814-1.886-1.636-.464-.963-1.224-1.2-2.248-.984-3.194.675-6.4 1.292-9.629 1.78-.599.09-1.192.231-1.727-.198-.362-1.074-.713-2.135-.865-3.282-.115-.88.221-1.188.92-1.311.917-.163 1.847-.256 2.772-.379.427-.187.915.052 1.336-.186l1.445-.006c.413.247.892.014 1.316.178 4.71.467 8.955 2.111 12.696 5.03z" fill="#FDEB6C"/>
        <path d="M33.977 136.652c.354-1.082 1.278-1.708 2.067-2.385 1.247-1.07 2.456-2.21 3.893-3.045a89.997 89.997 0 0 0 4.922-1.53c.572-.197 1.142-.393 1.762-.269.873.536.851 1.512 1.145 2.333.1 1.621.083 3.243.01 4.864-.573.528-1.294.474-1.966.406-3.577-.36-7.142-.138-10.71.12-.426.032-.995.223-1.123-.494zM9.693 137.448l3.546-.004c.673.293 1.397-.01 2.079.18 2.354.377 4.735.625 7.011 1.396.594.521.065.7-.293.866-.862.399-1.806.551-2.702.854-3.133 1.06-6.266 2.126-9.463 2.988-.497.134-.984.327-1.512.168-1.314-1.466-2.131-3.25-2.722-5.059-.413-1.264.939-1.037 1.697-1.192.772-.237 1.592.102 2.36-.197z" fill="#FDE850"/>
        <path d="M30.87 108.15c-.356-.038-.761.118-1.033-.26-1.309-.775-2.235-1.964-3.26-3.044a.514.514 0 0 1-.108-.592c1.283-1.724 2.644-3.353 4.667-4.276 1.782-.812 2.977-.403 3.696 1.417.662 1.674.948 3.454 1.267 5.219.088.18.083.363.01.546-.559.825-1.54.81-2.364 1.172-.138-.016.001.063.045.037.392-.234.618 0 .779.344-.51.774-1.257 1.035-2.145.992h-.256c-.437.09-.593-.1-.52-.521.179-.41.478-.6.737-.55-.458.134-.996-.142-1.514-.483z" fill="#FDED81"/>
        <path d="M5.254 99.852c-1.023-2.228-1.462-4.59-1.619-7.019a.356.356 0 0 1 .168-.385c3.327-.758 6.682-1.062 10.079-.556.463.069.944.104 1.332.42.47.562.016.89-.36 1.139-2.947 1.943-5.712 4.135-8.566 6.205-.3.217-.616.523-1.034.196z" fill="#FEED79"/>
        <path d="M3.44 90.256V89.24c.284-.394.008-.875.197-1.284.47-1.826 1.027-2.151 2.94-1.864 3.69.554 6.943 2.029 9.715 4.537.313.283.563.637.842.959-.226.777-.574 1.38-1.55 1.073-.442-.909-1.373-.982-2.172-1.17-2.684-.633-5.358-.47-8.007.275-.561.158-1.127.485-1.731.118-.277-.514.083-1.12-.235-1.628z" fill="#FEED6F"/>
        <path d="M15.6 92.596c.793.092.99-.722 1.534-1.008.467.177.57.644.805 1.007-.463.024-.874-.224-.704.743.125.711-.945 1.408-1.493 2.104-2.187 2.777-4.906 4.97-7.732 7.043-.263.193-.426.41-.432.738a.937.937 0 0 1-.516.513c-.967-1.125-1.508-2.448-1.808-3.884 1.658-.755 2.922-2.066 4.378-3.105 1.915-1.366 3.808-2.763 5.711-4.146.085-.082.17-.083.258-.005z" fill="#FEEE84"/>
        <path d="M.887 117.993c3.37-.27 6.657-1.043 9.97-1.652.462-.085.934-.151 1.377-.297 1.162-.382 2.07-.084 2.505 1.065.33.869 1.105 1.274 1.638 1.922-.951.16-1.94.113-2.847.519-3.51 1.009-7.055 1.177-10.639.441-.333-.068-.654-.214-1.005-.19l-1-1.808z" fill="#FEED72"/>
        <path d="M19.492 109.429c-.268.528-.66.855-1.291.79-.4-.891-1.065-1.14-2.031-1.053-2.959.265-5.378-.849-7.312-3.074-.046-.478.347-.543.65-.661 2.043-.8 4.108-1.124 6.284-.489 1.359.397 2.77.615 4.147.957.573.142 1.263.306.831 1.195-.277.325-.494.762-.844.95-.66.354-.53.85-.434 1.385z" fill="#FDEA67"/>
        <path d="M8.359 143.895c4.08-1.293 8.168-2.566 12.235-3.902.612-.201 1.519-.015 1.735-.973 1.083.302 2.119.718 3.1 1.266-2.416-.025-4.417 1.27-6.535 2.138-1.902.778-3.66 1.876-5.363 3.042-.505.997-1.635 1.29-2.33 2.072-1.051-1.133-2.19-2.197-2.842-3.643z" fill="#FEED75"/>
        <path d="M40.97 139.504c-2.103.029-3.762 1.098-5.298 2.363-.517.425-1.01.749-1.664.87-2.926.546-5.772 1.61-8.853 1.31 1.678-.675 3.478-1.067 4.935-2.206.75.044.654-.672.92-1.05.411-.583.506-1.367 1.145-1.81.84-.833 1.936-.967 2.994-.857 1.931.2 3.968-.142 5.749.97.128.118.151.256.072.41z" fill="#FEEC66"/>
        <path d="M40.967 139.247c-1.443-.61-3.011-.46-4.513-.73-1.454-.261-2.893.049-4.3.465.352-.978 1-1.723 1.823-2.33 1.553-.015 3.141.173 4.649-.095 1.976-.351 3.914-.04 5.86-.016 1.058.014 2.137.048 3.205.111.076.035.11.082.106.14-.006.064-.018.096-.038.096-.078.453-.09.923-.36 1.324-2.097.635-4.22 1.113-6.432 1.035z" fill="#FEED78"/>
        <path d="M20.771 107.095c.003-.36-.02-.66-.488-.766-2.216-.5-4.401-1.226-6.642-1.482-1.637-.187-3.234.631-4.783 1.245-.84-.602-1.378-1.433-1.796-2.356.007-.337.184-.503.516-.513 1.892.023 3.732.327 5.483 1.066.365.154.709.276 1.11.157 2.533-.75 5.068-1.494 7.602-2.24.14 1.727.051 3.407-1.002 4.889z" fill="#FDED78"/>
        <path d="M1.886 119.8c.046-.206.087-.5.367-.404 3.745 1.28 7.515.382 11.277.154h.741c-2.758.732-5.378 1.694-7.71 3.351-.425.302-.82.612-1.067 1.08-1.59-1.06-2.675-2.554-3.608-4.18z" fill="#FEEA62"/>
        <path d="M11.2 147.538c.31-1.218 1.571-1.362 2.331-2.072 1.109.482 2.244.262 3.375.124 1.03-.125 2.06-.254 3.118-.286-1.668.984-3.356 1.885-4.913 3-.554.396-1.149.76-1.315 1.499-.901-.713-1.938-1.27-2.595-2.265z" fill="#FEEC66"/>
        <path d="M32.51 157.392c.573-.018 1.026-.776 1.681-.27.65 3.015 1.424 6.005 1.867 9.062.095 1.183-.558 1.29-1.469 1.024-.7-3.27-1.209-6.582-2.078-9.816z" fill="#FCE64D"/>
        <path d="M26.991 116.96c-.8-.217-.145-.524.011-.634 1.789-1.26 3.653-2.365 5.86-2.736.965-.163 1.927-.347 2.89-.521-.196.799-.241 1.645-.723 2.357-.265.038-.522-.226-.79-.022-1.87.436-3.746.847-5.605 1.322-.548.14-1.08.263-1.643.234z" fill="#FEED79"/>
        <path d="m26.47 104.254 3.367 3.636c-1.833-.02-3.623-.344-5.4-.762.476-1.102 1.232-2.004 2.032-2.874z" fill="#FDED7B"/>
        <path d="M24.969 130.423c.356-.527.778-.96 1.46-1.019.573 1.711 1.228 3.397 1.557 5.181-.399.373-.904.616-1.258 1.043-.85-1.646-1.037-3.516-1.76-5.205z" fill="#FDE95E"/>
        <path d="m32.424 109.705 2.073-1.04c.103-.118.23-.2.378-.25.466-.084.922-.124 1.266.303.016.678.146 1.362-.085 2.03-.092.599.2 1.255-.27 1.797l-3.362-2.84z" fill="#FEEE7B"/>
        <path d="M40.967 139.247c2.128-.445 4.228-1.069 6.433-1.035.098.674-.132 1.263-.466 1.826-.203-.29-.526-.338-.806-.26-1.754.486-3.444-.113-5.158-.274l-.003-.257z" fill="#FEEC71"/>
        <path d="m46.621 129.423-5.997 1.96c-.265.087-.506.098-.687-.16 1.334-1.082 2.812-1.871 4.51-2.203.774-.152 1.524-.134 2.174.403z" fill="#FDE95E"/>
        <path d="M26.728 135.628c-.035-.897.574-1.015 1.258-1.043.379.826.674 1.679.823 2.578.35 1.326-.552 1.087-1.299 1.042-.386-.821-.765-1.644-.782-2.577z" fill="#FDE953"/>
        <path d="M27.51 138.205c.318-.491 1.472.062 1.299-1.042.449.72.403 1.594.72 2.355-.515.122-1.24-.383-1.502.502-.39-.542-.534-1.156-.517-1.815z" fill="#FEEE7B"/>
        <path d="M34.753 108.664h-.128l-.129.001-.964-.426 2.513-1.129c.247.216.023.581.255.8-.117.943.25 1.928-.245 2.838l-.015-2.08c-.427-.359-.857-.152-1.287-.004z" fill="#FEF296"/>
        <path d="M19.705 95.196c-.733-.422-1.154-1.17-1.777-1.708-.344-.298-.13-.605.022-.903.866.682 1.32 1.64 1.755 2.611z" fill="#FEF29D"/>
        <path d="M47.759 136.888a4.233 4.233 0 0 0-.068-.236l.075-4.896c.309 1.711.318 3.422-.007 5.132zM21.836 152.78l3.576.006c-1.193.307-2.385.322-3.576-.006zM3.44 90.256c.384.475.102 1.05.235 1.563.235.25.226.51.031.778a7.32 7.32 0 0 1-.07.236c-.405-.833-.115-1.72-.197-2.577zM20.752 128.093c.754-.351 1.552-.18 2.334-.194-.749.418-1.557.115-2.334.194zM9.693 137.448c-.766.306-1.568.182-2.359.197.756-.432 1.573-.128 2.36-.197zM15.318 137.623c-.699.008-1.408.135-2.08-.18.693.067 1.415-.208 2.08.18zM16.403 127.905c.695.013 1.407-.166 2.071.189-.689-.074-1.411.212-2.07-.189zM36.3 107.91c-.262-.21-.202-.523-.255-.8l.054-.496c.362.386.158.86.202 1.296zM5.05 112.835c-.408.336-.883.19-1.337.187.404-.364.886-.162 1.336-.187zM7.81 113.008c-.45.027-.912.15-1.315-.178.442.03.915-.163 1.316.178z" fill="#FDFDFD"/>
        <path d="M34.238 115.404c.273-.343.536-.324.791.021a1.05 1.05 0 0 1-.055.24c-.245-.088-.49-.174-.736-.26z" fill="#FEEC6C"/>
        <path d="M3.637 87.956c-.002.438.125.896-.198 1.284.05-.43-.151-.9.198-1.284z" fill="#FDFDFD"/>
        <path d="M31.648 109.184c.1.247.274.42.52.52-2.665 1.525-5.598 2.377-8.472 3.379-.271.094-.552.159-.917.006l8.87-3.905zM30.87 108.15c.611.11 1.222.218 2.031.362l-1.253.672-.777-1.033z" fill="#FEED7A"/>
        <path d="m3.706 92.597-.031-.778c2.52-.668 5.048-1.258 7.692-1.04 1.462.122 2.853.437 4.17 1.117.527.272.31.444.064.7l-.258.005c-2.538-.707-5.114-.697-7.704-.413-1.31.144-2.603.453-3.933.409z" fill="#FEEC64"/>
        <path d="M34.753 108.664c.43-.151.862-.971 1.288.005l-1.288-.005z" fill="#FDED81"/>
        <path d="M47.4 138.212c.268-.4.282-.87.36-1.324.019 0 .031-.032.037-.096.002-.02-.037-.04-.046-.058.295-1.658.206-3.317-.053-4.976v-.002c-.258-.82-.238-1.797-1.11-2.333-.65-.537-1.384-.555-2.157-.403-1.698.332-3.168 1.12-4.503 2.202-1.437.835-2.64 1.975-3.888 3.045-.789.677-1.71 1.303-2.065 2.385-.823.607-1.47 1.352-1.82 2.33-.64.441-.734 1.226-1.144 1.808-.266.379-.171 1.094-.92 1.05l-.561-2.322c-.318-.761-.272-1.634-.72-2.355-.15-.9-.445-1.753-.824-2.578-.33-1.784-.984-3.47-1.556-5.181-.064-.245-.117-.493-.193-.734-.662-2.111-.64-2.077 1.224-3.327 2.362-1.583 4.45-3.45 5.77-6.041a15.365 15.365 0 0 0 1.743-3.638c.028-.078.046-.157.055-.239.482-.711.527-1.557.723-2.356l.033-.524c.47-.542.18-1.199.27-1.797l.001-.002c.494-.91.103-1.894.22-2.836-.044-.435.292-.91-.226-1.296-.258-1.765-.58-3.545-1.242-5.219-.72-1.82-1.902-2.23-3.684-1.417-2.023.922-3.378 2.544-4.66 4.268-.801.87-1.551 1.829-2.026 2.865h-.036v.008c-1.553 1.897-2.308 4.166-3.111 6.58-.796-1.49-1.001-3.007-1.807-4.273-.097-.534-.223-1.03.438-1.383.35-.188.57-.634.847-.958 1.053-1.482 1.142-3.083 1.003-4.897-.162-2.592-.8-4.838-2.077-7-.434-.973-.987-1.926-1.764-2.607v.003l-.002.01h.005c-.234-.362-.335-.83-.802-1.006h.001c-.279-.322-.528-.676-.841-.96-2.772-2.507-6.025-3.982-9.715-4.536-1.913-.287-2.47.038-2.94 1.864-.349.384-.149.853-.197 1.284h-.004v1.016c0 .857-.259 1.743.259 2.576 0 2.429.566 4.792 1.59 7.02.3 1.436.826 2.75 1.792 3.875.418.923.95 1.829 1.789 2.347h-.004c1.934 2.333 4.352 3.348 7.31 3.083.966-.086 1.631.167 2.03 1.057-.016.346.113.646.23.972.812 2.26 1.76 4.476 2.349 6.814l-.273.038c-3.741-2.92-7.986-4.564-12.697-5.03-.4-.342-.873-.15-1.315-.179v.001l-1.446.005c-.45.025-.933-.177-1.336.187-.925.122-1.854.216-2.771.378-.7.124-1.036.432-.92 1.311.15 1.147.503 2.208.864 3.282l1 1.807c.932 1.627 2.018 3.12 3.607 4.18 1.877 1.677 4.118 2.62 6.513 3.257 1.455.296 2.902.638 4.397.668.66.4 1.381.114 2.071.188l-.002.004.002.005h2.277c.777 0 1.58.22 2.356-.2v-.001c.777-.214 1.107.06 1.31.74.18.597.369 1.188.557 1.782.722 1.69.906 3.559 1.756 5.204.017.934.394 1.757.78 2.578-.016.66.126 1.273.518 1.815-.156.59.43 1.165.108 1.812l-2.706-1.546a14.102 14.102 0 0 0-3.101-1.266c-2.277-.772-4.657-1.026-7.012-1.403-.665-.388-1.387-.186-2.079-.186h.001c-1.182 0-2.364.009-3.546.01-.052.02-.105.04-.157.055.052-.017.097-.03.15-.05-.787.068-1.591-.234-2.368.197-.777.156-2.102-.071-1.689 1.193.591 1.809 1.413 3.593 2.726 5.058.651 1.446 1.793 2.544 2.844 3.678.656.994 1.695 1.521 2.596 2.299 2.368 1.814 5.083 2.67 8.04 2.91 1.192.328 2.384.2 3.576-.06 1.572 0 3.134-.394 4.622-.956.722-.273 1.087-.093 1.262.7.365 1.646.806 3.283 1.215 4.918.87 3.234 1.378 6.55 2.079 9.82l.467 3.147c.838 3.744 1.187 7.56 1.604 11.363l.172 1.83c.077.605-.213 1.254.213 1.819.116.453.367.738.87.605.439-.117.76-.362.723-.886-.024-.336-.036-.673-.054-1.01-.232-1.283.002-2.623-.473-3.877-.144-3.492-.746-6.924-1.337-10.357-.203-1.225-.32-2.467-.716-3.653-.444-3.058-1.217-6.048-1.867-9.063-.39-1.572-.778-3.145-1.17-4.716-.17-.681-.123-1.173.767-1.25 2.04-.175 3.946-.837 5.7-1.863 3.646-2.132 6.362-5.042 7.445-9.254.334-.563.564-1.152.466-1.826zm-13.659-29.88.066.029-.016.007c-.044.026-.18-.05-.05-.036zm-19.474 11.287c-.166.034-.326.078-.469.06l.11-.03c.12-.011.239-.023.36-.03z" fill="#FFDE1D" opacity=".2"/>
        <g>
            <path d="M183.692 112.293c.114-.423.411-.261.688-.232 4.128.441 8.184 1.256 12.183 2.362 1.813.502 3.607 1.062 5.354 1.762.54.36.115.683-.061.983-.374.637-.975 1.116-1.355 1.876 1.003.119 1.957-.016 2.897.086.633.068.67.167.387.674-1.235.249-2.483.134-3.721.112-2.097-.039-4.193.027-6.288-.047-.514-.053-.975-.269-1.443-.463-1.01-.318-2.056-.241-3.06-.086-.845.13-1.7.063-2.54.251-.537.121-.885-.157-.966-.722a3.156 3.156 0 0 1-.04-.532c.062-2.259-.591-4.275-2.035-6.024z" fill="#FEF195"/>
            <path d="M183.692 112.293c1.335.791 1.773 2.134 2.105 3.514a8.99 8.99 0 0 1 .23 2.754c-.048.654.157.835.877.73 1.648-.237 3.311-.435 4.988-.345.218.012.428.023.574.217-1.257.61-2.636.284-3.949.506-1.074.181-2.178.205-3.264.343-.678.035-1.35.39-2.036.053a1.705 1.705 0 0 1-.01-1.105l.037-1.926c.243-.406-.017-.879.171-1.293l.038-1.082c.245-.325-.007-.733.18-1.067l.06-1.299z" fill="#FEF08F"/>
            <path d="m209.648 120.014-1.509.004c-.651-.178-1.287-.083-1.949.003-.726.095-1.583.487-2.133-.427-.9-.476-1.866-.11-2.797-.21-.418-.044-.845-.007-1.456-.007.717-.926 1.336-1.747 1.983-2.545.174-.215.294-.388.13-.647 2.727.973 5.341 2.174 7.73 3.829z" fill="#FEF29A"/>
            <path d="m183.207 118.96.036 1.064c.254.352.309.7-.023 1.039-.062.02-.124.042-.184.068.057-.723-.204-1.472.171-2.171zM183.415 115.742c-.007.437.135.894-.172 1.292.05-.431-.16-.898.172-1.292zM183.633 113.592c-.004.365.118.751-.18 1.067.044-.358-.133-.754.18-1.067z" fill="#FDFDFD"/>
            <path d="M185.164 119.804c.681-.049.91.12.772.917-.174 1.005-.882 1.578-1.412 2.306-.882.338-1.253-.048-1.282-.91-.013-.35-.015-.702-.022-1.054l.023-1.04c.641-.065 1.261-.315 1.921-.22z" fill="#FEEB6C"/>
            <path d="M189.247 145.788c-.396-.148-.441-.562-.646-.855-.093-.35.2-.418.406-.521 2.86-1.443 5.668-3 8.724-4.022 2.017-.459 4.066-.692 6.117-.912.326-.015.652-.12.98-.014.24.377.635.524 1.015.708 2.946 1.426 5.836 2.94 8.215 5.256.882.9 1.73 1.837 2.703 2.647-.162.29-.449.324-.734.362-2.058.223-4.034.88-6.082 1.153-.422.057-.84.174-1.262.004-1.51-.745-3.156-.623-4.751-.612-.732.005-1.561-.108-2.26.343-.555.223-1.043-.064-1.542-.218-3.186-.985-6.226-2.42-9.524-3.062-.452-.088-.9-.206-1.359-.257z" fill="#FEED75"/>
            <path d="M189.247 145.788c.292-.649.736-.151 1.062-.092 3.519.643 6.763 2.162 10.151 3.226.404.126.824.203 1.236.302.491-.372 1.042-.126 1.536-.075 1.513.157 3.019.262 4.536.097.28-.03.568-.021.797.193 2.163-.138 4.242-.748 6.355-1.163.389-.077.768-.117 1.157-.123.533.432.483 1.15.824 1.677.452 1.083.86 2.185 1.38 3.24.176.356.48.778-.063 1.12-1.272-1.726-2.964-.924-4.467-.62-3.063.619-6.135.648-9.226.515.167-.497.613-.404.977-.435.89-.075 1.752.183 2.633.225-2.574-.258-5.155-.404-7.737-.548-2.856-.564-5.336-1.902-7.612-3.672-1.4-1.09-2.63-2.33-3.539-3.867z" fill="#FEEB62"/>
            <path d="M216.529 126.241c1.853 2.015 2.804 4.495 3.602 7.047.2.637.275 1.314.407 1.972-1.438.544-2.967.309-4.448.465-1.374.145-2.765.318-4.16.283-.488-.012-.947.021-.998.676-.045.573-.467.748-.945.862-3.358.8-6.703 1.065-9.976-.354-1.028-.445-2.114-.242-3.165-.407a.802.802 0 0 1-.32-.188.294.294 0 0 1 .057-.34c.564-.377 1.2-.466 1.845-.37 2.71.408 5.403-.139 8.105-.159.775-.005 1.56-.11 2.344-.134.964-.03 1.05-.144.788-1.102-.45-1.652-.979-3.28-1.426-4.933-.074-.277-.142-.553-.107-.844a.95.95 0 0 1 .124-.341c.297-.35.727-.426 1.134-.55 1.771-.538 3.501-1.21 5.297-1.672.62-.16 1.248-.357 1.842.09z" fill="#FEEE76"/>
            <path d="M196.546 136.554c.07.002.141.003.212.003 2.154.413 4.116 1.38 6.146 2.15.483.183 1.152.302 1.15 1.068-2.164.15-4.293.56-6.436.864-1.669.65-3.432.733-5.187.872-1.6.131-3.191.358-4.8.363-.324.001-.646.06-.917-.178-.606-1.49-1.283-2.954-1.704-4.514 0-.75.46-.805 1.07-.783 2.21.08 4.421.063 6.632.073.43.002.855-.02 1.268-.154.868-.06 1.753-.3 2.566.236z" fill="#FDE954"/>
            <path d="m183.037 123.199-.002-2.067c.07-.093.153-.107.25-.044.166.197.212.442.198.682-.047.804.39 1.118 1.122 1.159 2.332 1.424 4.42 3.386 7.44 3.266.708-.028 1.364-.444 2.09-.233.253.528-.217.753-.46 1.061-1.431 1.82-3.227 3.31-4.675 5.117-.188.234-.612.403-.444.764.131.281.514.142.787.163.353.026.728-.037 1.037.173.351.238.147.395-.117.52-1.66.195-3.338.1-4.996.316a1.494 1.494 0 0 1-1.108-.303c-.287-1.791-.687-3.567-.742-5.39-.191-.416.068-.891-.172-1.301l-.047-1.923c-.196-.642.08-1.322-.16-1.96z" fill="#FEED7A"/>
            <path d="M216.722 147.939c-.486.033-.842-.076-1.165-.539-.462-.663-1.076-1.221-1.625-1.824.117-.656-.231-1.168-.535-1.687-.648-1.11-1.112-2.303-1.544-3.506-.141-.394-.421-.886.152-1.23 1.29-.283 2.62.102 3.904-.258 1.255-.133 2.521-.09 3.773-.277.377-.057.774-.022 1.107.228.208.513.125 1.035.05 1.557l-.041 1.3c-.245.325.008.734-.181 1.068-.404 1.734-.604 3.52-1.315 5.176-.86-.119-1.721.45-2.58-.008z" fill="#FEEF85"/>
            <path d="M216.529 126.241c-1.5-.101-2.836.537-4.222.94-1.324.386-2.638.809-3.957 1.215-.576-.065-.563-.582-.673-.953a60.885 60.885 0 0 1-1.42-5.91c-.282-1.49-.043-1.763 1.474-1.808.143-.004.285-.009.427-.02.524-.03 1.008.134 1.49.309 2.55 1.533 4.822 3.392 6.658 5.751.106.135.15.317.223.476z" fill="#FEEC71"/>
            <path d="M215.863 139.133c-1.338.464-2.721.093-4.078.217-.096.11-.21.212-.352.226-2.012.194-4.037.084-6.052.23-.176.013-.327-.124-.463-.242l-.864.211c-.47-.642-1.213-.815-1.894-1.087-1.797-.718-3.6-1.421-5.402-2.13 2.188-.419 4.078.768 6.117 1.149 2.541.473 4.993-.06 7.458-.525.46-.086.415-.442.297-.754-.198-.52-.037-.723.506-.733 3.014-.054 6.013-.34 9.013-.598.124-.01.26.106.39.163-.033.731.346 1.42.229 2.16-.814.523-1.656.328-2.469.042-2.08-.732-4.17-.302-6.258-.1-.312.03-.545.215-.475.579.079.413.292.744.735.824.673.122 1.356.029 2.033.064.522.028 1.084-.117 1.53.304z" fill="#FCEA68"/>
            <path d="M184.16 133.772c2.126-.015 4.242-.36 6.374-.222.557-.136 1.112-.072 1.667.016 1.145.244 2.296.474 3.28 1.166.562.396 1.063.839 1.063 1.61l.002.212-2.577.002c-2.02.098-4.032.04-6.01-.407-1.113-.251-2.228-.438-3.368-.473l-.432-1.904z" fill="#FEEB67"/>
            <path d="M215.863 139.133c-1.137 0-2.274.006-3.412-.003-.693-.006-1.58-.94-1.417-1.613.141-.584.771-.512 1.24-.522 1.132-.022 2.24-.294 3.385-.244 1.034.044 2.037.05 3.002.53.651.324 1.403.076 2.107.139l.077.226c.067.426.155.853-.064 1.264-1.643-.016-3.269.36-4.918.223z" fill="#FCE855"/>
            <path d="M216.722 147.939c.719-.083 1.441-.146 2.155-.26.267-.042.393.001.425.267-.133.813-.52 1.533-.827 2.283-.164.401-.171.69.289 1.046 2.01 1.557 3.955 3.2 5.923 4.813-1.293.344-2.586.078-3.879-.002-.782-.32-1.404-.849-1.942-1.488.285-.893 1.097-.223 1.61-.562-1.43-1.227-2.665-2.632-3.756-4.165-.524-.456-.417-1.15-.643-1.718.236-.008.49.038.645-.214z" fill="#FEEC6C"/>
            <path d="M226.984 157.868c.84.639 1.704 1.25 2.515 1.926.516.43.715 1.04.201 1.582-.5.53-1.163.897-1.873.36-1.432-1.08-2.828-2.208-4.24-3.317.66-.785 1.612-.519 2.444-.674.323-.06.63.115.953.123z" fill="#FDEF89"/>
            <path d="M192.463 141.277c1.158-.496 2.426-.006 3.606-.409.486-.165 1.031-.158 1.55-.23-1.455.654-2.922 1.282-4.36 1.969-1.567.747-3.107 1.549-4.658 2.326-.462-.589-.904-1.189-1.066-1.943.047-.635.597-.609 1.004-.734 1.29-.398 2.633-.582 3.924-.979z" fill="#FEEC69"/>
            <path d="M226.984 157.868c-1.11.32-2.299.154-3.396.551-.96-.738-2.016-1.362-2.78-2.333 1.294-.442 2.587-.172 3.88.002a14.28 14.28 0 0 1 2.296 1.78z" fill="#FBE651"/>
            <path d="M184.59 135.676c.766-.771 1.62-.195 2.346-.025 2.32.544 4.682.662 7.033.905-.208.268-.507.218-.784.213-2.515-.053-5.035.149-7.542-.115-.538-.056-.406.381-.632.528l-.42-1.506z" fill="#FEE95C"/>
            <path d="M216.72 149.872c.274-.234.395.05.485.189 1.043 1.61 2.437 2.895 3.904 4.184-.744.375-1.583-.166-2.243.353l-.648-.409c.18-1.154-.829-1.89-1.028-2.918-.092-.479-.31-.934-.47-1.4z" fill="#FEEE77"/>
            <path d="M200.398 153.327c.826-.49 1.757-.318 2.58-.187 1.769.281 3.618-.072 5.294.756-1.218.21-2.508-.147-3.748.19-1.384-.204-2.808-.194-4.126-.76z" fill="#FDE95E"/>
            <path d="M192.463 141.277c.106.008.265-.026.31.03.273.347-.133.176-.183.189-1.37.364-2.74.723-4.117 1.054-.352.085-.695.143-.938.44-.512-.28-.613-.822-.821-1.294l5.749-.419z" fill="#FEED7A"/>
            <path d="m220.78 138.91.066-1.264c.271.92.281 1.84-.007 2.758l-.058-1.494zM183.037 123.199c.342.63.132 1.305.161 1.96-.358-.628-.108-1.307-.16-1.96zM183.245 127.082c.29.403.166.86.172 1.3-.335-.396-.124-.865-.172-1.3zM220.617 142.771c.005-.365-.109-.75.181-1.068-.045.359.133.755-.18 1.068z" fill="#FDFDFD"/>
            <path d="M204.918 139.564c2.283-.256 4.575-.24 6.867-.214.561 1.84 1.356 3.574 2.29 5.251.166.3.65.766-.143.975-2.496-2.23-5.382-3.836-8.373-5.283-.27-.13-.898-.082-.641-.729z" fill="#FEF08A"/>
            <path d="M208.565 149.44c-2.305.43-4.59.182-6.869-.215-.064-.213-.142-.401.219-.434 2.156-.192 4.3-.154 6.44.211.354.061.276.227.21.437z" fill="#FEEF7C"/>
            <path d="M204.056 119.593c.68.43 1.434.115 2.147.213.644.088 1.33-.21 1.936.212-1.81.009-1.853.018-1.5 1.753.455 2.236.87 4.487 1.711 6.625v.215c-2.05.806-4.061 1.144-5.905-.502-.409-.366-.823-.52-1.342-.156-2.572 1.804-5.238 3.465-7.924 5.095-.337.204-.563.55-.928.717-.57-.093-1.189.211-1.717-.215-.575-.438-1.238-.122-1.853-.214-.235-.035-.53.071-.653-.228-.116-.283.098-.463.267-.643 1.066-1.14 2.142-2.271 3.197-3.422.91-.992 1.795-2.005 2.691-3.01.229-.976 1.017-1.573 1.606-2.291.944-1.15 1.914-2.279 2.993-3.653-1.47-.01-2.752.027-4.03-.022-.426-.017-1.038.255-1.213-.475l10.517.001z" fill="#FEEE7B"/>
            <path d="M192.251 133.765c.346-1.149 1.492-1.356 2.323-1.88 2.195-1.385 4.4-2.752 6.5-4.277.507-.37.883-.345 1.308.076 1.311 1.295 2.843 1.695 4.595 1.06.456-.166.914-.113 1.373-.133.594 2.113 1.173 4.231 1.792 6.337.173.59.213.943-.574.973-3.186.12-6.37.287-9.557.415-1.154.047-2.311-.37-3.467.006-.815-1.535-2.24-2.082-3.828-2.36-.182-.032-.348-.06-.465-.217z" fill="#FEEE7D"/>
            <path d="M193.54 119.592c.726.455 1.524.161 2.286.2 1.097.055 2.199.014 3.482.014-1.648 2.264-3.403 4.233-5.125 6.228-2.736 1.02-5.136.197-7.408-1.348-.521-.354-.995-.783-1.673-.867-.407-.05-.44-.485-.578-.792-.129-.57.388-.793.634-1.156.583-.86.597-1.411.006-2.067.765-.445 1.65-.292 2.457-.372 1.603-.159 3.218-.413 4.845-.27l1.073.43z" fill="#FEEC74"/>
            <path d="M196.31 125.596c.928-.893 2-1.376 2.915-2.111.676-.543.747.23.93.56.579 1.044.545 1.144-.628 1.302-1.064.144-2.144.17-3.217.25z" fill="#FEEE7D"/>
            <path d="M229.499 159.794c-.811-.676-1.674-1.287-2.515-1.926a14.28 14.28 0 0 0-2.297-1.78c-1.968-1.612-3.912-3.256-5.923-4.813-.46-.356-.453-.645-.289-1.046.307-.75.694-1.47.828-2.283.71-1.655.91-3.441 1.314-5.175.314-.313.117-.71.162-1.068.013-.433.022-.866.022-1.3v-.001c.429-.918.297-1.837.025-2.756-.025-.076-.042-.147-.067-.223.117-.74-.253-1.511-.22-2.155h.047v-.005c-.215-.658-.232-1.336-.431-1.973-.799-2.552-1.761-5.033-3.615-7.048-.072-.16-.123-.342-.228-.477-1.836-2.36-4.114-4.218-6.665-5.751-2.39-1.655-4.946-2.856-7.736-3.829v-.03h.003a67.698 67.698 0 0 0-5.353-1.747c-3.999-1.106-8.054-1.914-12.182-2.355-.277-.03-.573-.187-.687.236l-.06 1.301c-.312.313-.135.71-.18 1.068h.002-.001l-.038 1.083c-.332.395-.122.862-.172 1.293l-.036 1.907c-.375.7-.114 1.51-.172 2.154v.018c0 .69.02 1.388.021 2.077.053.653-.25 1.34.18 1.969 0 .64.012 1.289.028 1.93.047.434-.173.877.162 1.307h-.004c.055 1.718.452 3.592.74 5.383.143.634.257 1.266.4 1.9.14.502.39 1.003.39 1.505v-.001c.43 1.56 1.127 3.023 1.733 4.513.209.473.324 1.014.836 1.295.161.754.61 1.354 1.073 1.942.205.293.254.707.65.855.908 1.537 2.14 2.778 3.54 3.867 2.275 1.77 4.757 3.109 7.612 3.672 1.319.565 2.743.555 4.127.76l.002-.001c3.091.132 6.163.103 9.225-.516 1.504-.304 3.196-1.106 4.468.62l.648.408c.538.64 1.16 1.168 1.942 1.488.764.971 1.82 1.595 2.78 2.333 1.41 1.109 2.807 2.236 4.239 3.318.71.536 1.372.17 1.873-.36.514-.544.315-1.152-.201-1.583zm-12.824-11.795-.064-.057c.037 0 .073 0 .111-.003-.014.023-.03.041-.047.06zm-12.782-28.406c.01-.022.02-.043.027-.064.046.02.091.04.136.064h-.163z" fill="#FFDE1D" opacity=".2"/>
        </g>
        <g>
            <path d="M126.58 32.323c.503 1.289.194 2.65.335 4.233.754-.733 1.394-1.33 2.005-1.956.866-.886 1.7-1.805 2.89-2.266.11.05.207.12.291.206.902.985 1.828 1.947 2.827 2.833.285.252.653.45.586.929-2.056 2.114-4.216 4.122-6.416 6.077-.686.61.35.297.17.535-.139.462-.564.502-.92.595-1.263.333-2.381.957-3.46 1.672-2.498 1.396-5.227 2.2-7.918 3.084-1.221.401-2.431.865-3.698 1.125-1.92-.218-2.857-1.677-3.634-3.163-.99-1.895-1.889-3.819-3.67-5.12a1.018 1.018 0 0 1-.067-.378c.03-.265.159-.482.32-.684.82-.603.832-1.757 1.594-2.402 1.339-.884 2.797-1.53 4.256-2.177.818.575 1.426 1.358 2.046 2.127.533.161.396-.262.415-.508.055-.708-.08-1.424.078-2.128l.09-.004c.205-.504.66-.65 1.116-.788 3.129-.947 6.298-1.707 9.549-2.086.435-.051.859-.086 1.215.244z" fill="#FECD94"/>
            <path d="M124.795 44.918c1.25-1.173 2.914-1.463 4.415-2.099.277-.557.715-.588 1.221-.387.147.147.094.42.535.344 2.08-.358 4.174-.628 6.253-1-.545 3.065-1.71 5.83-3.847 8.126-1.61 1.459-3.287 2.814-5.332 3.619-1.468.744-3 1.348-4.476 2.074-.157.077-.648.129-.146.46.094.079.14.176.137.297-.476.63-1.214.815-1.892 1.033-.633.203-1.319.248-1.252-.827.036-.584-.508-.2-.745-.351a1.935 1.935 0 0 1-.358-.095c-1.33-.928-2.754-1.754-3.537-3.282-.077-.82.577-1.13 1.085-1.492 2.261-1.612 4.447-3.324 6.626-5.045.495-.39 1.126-.674 1.313-1.375z" fill="#FDC787"/>
            <path d="M126.876 71.662c-.863-.28-1.349-1.053-2.022-1.581-.73-.575-1.266-.686-1.475.461-.076.422-.256.827-.41 1.231-.116.307-.127.766-.5.816-.414.055-.5-.392-.648-.702-1.042-2.179-2.291-4.256-3.145-6.552-.207 1.63-.324 3.246.15 4.834.179.597.298 1.068-.466 1.324-.897.3-.797-.58-.914-.898-.583-1.574-.398-3.247-.42-4.89.24-.383-.03-.834.157-1.224.415-.578 1.054-.733 1.683-.856 2.658-.52 5.259-1.272 7.887-1.915.274-.044.545-.03.812.05.811.398 1.543.936 2.33 1.376.482.27.773.656.904 1.182 2.253 1.958 4.309 4.06 5.122 7.08-.943.214-1.858-.13-2.79-.17-2.108-.09-4.167.35-6.255.434z" fill="#FEBC6E"/>
            <path d="M126.58 32.323c-4.063.403-8.027 1.257-11.88 2.63-.38-2.802 1.123-5.028 2.336-7.28 1.308-2.426 2.917-4.685 4.335-7.053.339-.566.743-.617 1.282-.62.61-.002.738.468.766.868.28 3.91 1.697 7.488 3.11 11.07.046.117.035.256.05.385z" fill="#FEC480"/>
            <path d="m101.144 62.988.316-.484c1.039.507 2.064.281 3.126.026 2.306-.553 4.56-1.27 6.804-2.028 1.673.148 3.04-.83 4.545-1.29 1.321-.405 2.59-.98 3.848-1.563.93-.433 1.764-.296 2.509.41.633.599 1.376 1.06 2.02 1.642.81.731.69 1.225-.36 1.526-1.537.442-3.128.654-4.649 1.196-1.278.456-2.345 1.246-3.472 1.915.275.083.718-.032.657.52l-3.16 3.806c-.635-1.076.443-2.15-.207-3.119-2.609.57-5.26.92-7.857 1.548-.298.072-.593.121-.886-.014-.876-1.18-1.257-2.794-2.887-3.315-.352-.113-.622-.34-.347-.776z" fill="#FEBD70"/>
            <path d="M106.09 40.984c1.65.677 2.334 2.23 3.073 3.653.744 1.43 1.43 2.854 2.705 3.903.378.311.703.646 1.237.574.05.266-.116.39-.316.491-2.73.672-5.42 1.506-8.113 2.309-1.78.53-3.392.459-5.017-.35-.83-.398-1.72-.508-2.623-.573-.297-.022-.648-.027-.787-.342-.168-.383.128-.662.362-.897 1.004-1.007 2.293-1.67 3.255-2.732 1.122-.298 2.136.087 3.146.504.43.178.868.336 1.428.552-.138-1.44-1.197-2.415-1.435-3.696.731-1.407 1.524-2.757 3.085-3.396z" fill="#FECA8C"/>
            <path d="M99.596 51.212c2.35 1.348 4.634.501 6.926-.2a240.63 240.63 0 0 1 5.052-1.502c.405-.114.846-.092 1.27-.133 1.431.772 2.236 2.127 3.119 3.409.875 1.323 2.267 2.08 3.38 3.144-.277.284-.623.244-.961.193-2.066-.314-4.146-.55-6.163-1.123a3.412 3.412 0 0 1-.358-.133c-.383-.193-.807-.213-1.22-.28-.12-.02-.236-.05-.353-.081-.421-.123-.86-.071-1.288-.13-2.067-.478-4.16-.846-6.174-1.53-.67-.227-1.27-.013-1.898.163-2.076.583-4.104 1.361-6.266 1.61-1.646-.906-3.086-2.085-4.42-3.404-.022-.415.295-.533.583-.562 1.784-.176 3.53-.646 5.364.03 1.047.385 2.274.306 3.407.53z" fill="#FDC179"/>
            <path d="M116.488 64.858c-.246-.448-.802-.13-1.153-.414 2.403-2.314 5.453-2.867 8.46-3.518.288-.062.682.04.79-.303.136-.428-.293-.556-.557-.752-.484-.358-1.102-.621-1.428-1.091-1.12-1.609-2.367-1.042-3.701-.408-2.252 1.071-4.63 1.81-6.977 2.634-.45.158-.563.104-.376-.354 1.476-1.268 3.339-1.772 5.045-2.582.703-.333 1.402-.678 2.118-.98.54-.228.816-.597.89-1.158h1.491c.187.233.072.342-.067.452-.21.165-.656.226-.402.635.177.285.544.289.82.168.696-.303 1.372-.657 2.056-.99.17-.17.381-.206.608-.19 1.56.134 3.119.175 4.676-.027a2.48 2.48 0 0 1 .409-.088c.603-.076 1.224.014 1.815-.193 1.848-.599 3.426.253 5.033.952.131.035.258.081.384.132 1.058.408 2.165.568 3.284.68.287.03.676.093.634.488-.03.27-.37.36-.627.375-1.163.074-2.327.116-3.483.298-3.113.49-6.221.997-9.252 1.893-.24.07-.517.09-.667.367-.013.458.702.548.562 1.079-2.66.876-5.396 1.45-8.122 2.057-.52.116-.985.3-1.432.569-.227.016-.402.168-.609.239a4.27 4.27 0 0 0-.222.03z" fill="#FEC179"/>
            <path d="M94.662 54.618c2.344-1.1 4.934-1.405 7.34-2.31.617-.23 1.118.359 1.704.487 1.84.403 3.67.863 5.502 1.302.387.321.91-.045 1.299.262.387.32.91-.044 1.299.262.345.538-.061.832-.402 1.066-2.22 1.524-4.63 2.718-6.984 4.009-.181.099-.429.019-.638.086-3.482-.926-6.43-2.813-9.12-5.164z" fill="#FDB969"/>
            <path d="M103.782 59.782c2.277-1.302 4.569-2.58 6.82-3.927.475-.285 1.18-.455 1.204-1.234l7.536 1.309.257.003c.474.56.556.881-.308 1.242-2.61 1.09-5.167 2.309-7.745 3.478-2.582 1.22-5.36 1.796-8.096 2.515-.833.219-1.526.167-1.99-.664.766-1.54 2.474-1.478 3.787-2.201-.486-.34-.967-.453-1.465-.52z" fill="#FDBB6C"/>
            <path d="M100.705 38.365c-.402-2.456-1.21-4.84-1.307-7.351.869-.969 2-1.583 3.051-2.306 1.718.915 3.48 1.756 4.95 3.08.981 1.824.64 3.77.513 5.694-.546 1.108-1.576 1.632-2.586 2.183-.278.14-.506.436-.877.296-1.051-1-2.559-.912-3.744-1.596z" fill="#FEBD71"/>
            <path d="M135.966 56.98c-1.574-.691-3.13-1.463-4.935-1.047-.57.34-1.25-.093-1.82.262h-.259c-1.646.21-3.291.21-4.937 0l-.518.003v-.004c-.037-.638.549-.544.874-.731 1.199-.688 2.486-1.226 3.542-2.154 2.015-.817 3.55-2.418 5.46-3.407l-1.449 1.988c.817.326 1.507-.223 2.238-.19.404-.234.9.077 1.293-.222 1.283-.05 2.527.082 3.635.82.674.446.151.853-.097 1.172-.948 1.222-1.898 2.446-3.027 3.51z" fill="#FECA8B"/>
            <path d="M130.8 64.318c-.813-1.106-2.282-1.32-3.147-2.354.01-.617.543-.627.917-.732 3.372-.95 6.77-1.8 10.127-2.81.884-.266 1.854-.304 2.772-.535.377-.095.893-.301.99.405-1.069.857-2.184 1.662-3.197 2.582-2.07 1.88-4.576 2.59-7.245 2.914-.462.056-.956.014-1.217.53z" fill="#FEC179"/>
            <path d="M104.272 66.946c2.835-.561 5.672-1.117 8.504-1.692.301-.061.53-.17.344.291-1.724 1.344-3.326 2.88-5.485 3.54-.42.218-.915-.06-1.327.207l-2.793.007c-.67-.307-1.396.01-2.075-.189l-1.552-.077c-.407-.272-.897.001-1.315-.201-1.678-.198-3.356-.398-5.035-.588-.224-.025-.487-.058-.462-.308.027-.267.298-.375.564-.402 3.135-.331 6.298-.355 9.419-.858.428-.07.868-.091 1.213.27z" fill="#FEBA69"/>
            <path d="M135.966 56.98c.64-1.562 2.072-2.513 2.964-3.885.178-.274.366-.475.16-.797 2.124.811 4.246 1.626 6.372 2.43.637.24.723.549.173.984-.878.695-1.759 1.388-2.638 2.082-2.316.227-4.55-.25-6.772-.81l-.26-.003z" fill="#FECC90"/>
            <path d="M130.51 42.56c-.456-.035-.897.015-1.3.26-.758.041-.73-.214-.254-.663 1.441-1.36 2.875-2.728 4.315-4.088.685-.648 1.24-1.457 2.17-1.803.917.007 1.396 1.004 2.302 1.035-.124 1.232-.077 2.487-.488 3.68-1.938.374-3.718 1.303-5.669 1.64-.38.065-.73.269-1.075-.06z" fill="#FED4A3"/>
            <path d="m136.224 56.983 6.773.811-.538.497c-1.288-.32-2.54.134-3.692.48-3.54 1.065-7.122 1.96-10.681 2.945-.155.043-.29.163-.433.247h-.78c-.389-.519-1.467-.535-1.379-1.21.09-.692 1.066-.437 1.628-.621 1.996-.653 4.089-.918 6.132-1.372 2.27-.504 4.542-.708 6.855-.828-1.313-.28-2.702-.188-3.885-.949z" fill="#FEC785"/>
            <path d="M126.876 71.662c.774-.72 1.802-.57 2.694-.64 2.119-.166 4.284-.549 6.351.376a36.105 36.105 0 0 1 2.11 5.596c-2.024-1.436-3.708-3.23-5.925-4.291-.588-.292-1.24.018-1.837-.195-1.15-.2-2.458.24-3.393-.846z" fill="#FEB865"/>
            <path d="M104.272 66.946c-3.083.357-6.16.789-9.272.78-.455-.001-.947.152-1.36-.192 1.392-.63 2.776-1.282 4.179-1.887 1.352-.585 2.49-1.423 3.325-2.658.009.043.008.119.027.124 1.614.434 2.135 2.009 3.176 3.043.456.453.065.543-.075.79z" fill="#FEBF75"/>
            <path d="M137.743 37.301c-.206.138-.286.565-.688.207-.506-.45-1.072-.831-1.613-1.242-1.222-1.21-2.596-2.269-3.625-3.675 1.082-.505 1.848.376 2.746.656.706.22 1.298.808 2.434.733-1.013-.754-1.859-1.263-2.488-2.02-.362-.436-.78-.854-.368-1.484.58-.257.858-.97 1.557-1.047.897.357 1.844.628 2.464 1.462-.014.474.075.952-.065 1.419l-.057 2.106c-.317.673.031 1.415-.214 2.095l-.083.79z" fill="#FEB968"/>
            <path d="M99.596 51.212c-1.457.013-2.885-.256-4.322-.447-1.707-.227-3.377.042-5.032.45-.353-.025-.632-.169-.788-.507.943-1.164 2.26-1.79 3.52-2.5.654-.085 1.329.142 1.97-.134 1.685-.14 3.2-1.09 4.921-1.055.611.148.267.301.023.516-1.143 1.007-2.516 1.744-3.693 3.096 1.308.085 2.416.043 3.401.581z" fill="#FEC686"/>
            <path d="M107.647 37.836c.041-2.021.021-4.04-.249-6.05 1.727 1.008 3.212 2.328 4.673 3.68-.375.868-1.324.826-1.979 1.251-.683.443-1.452.752-2.184 1.12-.087.112-.174.112-.26 0z" fill="#FEC480"/>
            <path d="M107.647 37.836h.261c-.63.713-.492 1.942-1.557 2.362-.157.139-.453.208-.26.524v.262c-1.212.963-1.969 2.347-3.087 3.395-.69-.839-1.05-1.836-1.346-2.865.856-.689 1.603-1.597 2.864-1.488.466.04.336-.426.531-.614l2.594-1.576z" fill="#FEC686"/>
            <path d="M92.84 48.34c-.958 1.039-2.167 1.71-3.386 2.368-1.165-.887-2.374-1.721-3.454-2.89 2.176-.088 4.202.466 6.256.273.18.12.437.054.585.25z" fill="#FEC27C"/>
            <path d="M102.449 28.708c-.758 1.118-1.899 1.72-3.051 2.306-.532-1.36-.494-2.814-.867-4.408 1.483.695 2.763 1.274 3.918 2.102z" fill="#FEBA69"/>
            <path d="M134.141 30.476c.19 1.487 1.466 2.01 2.433 2.812.29.241 1.04.213.763.801-.263.56-.895.4-1.377.189-1.178-.518-2.336-1.078-3.512-1.6-.186-.084-.42-.06-.63-.087a3.528 3.528 0 0 1-.007-.257c.591-.856 1.498-1.31 2.33-1.858z" fill="#FDB561"/>
            <path d="M130.51 42.56a27.89 27.89 0 0 0 5.161-1.58c.562-.236 1.055-.34 1.584.002l-.036.795c-.845.708-1.907.681-2.902.834-1.424.219-2.859.356-4.555.56l.749-.61z" fill="#FDC178"/>
            <path d="M138.068 30.766c-.88-.286-1.767-.554-2.37-1.337.016-.04.024-.088.051-.117.676-.694 1.482-1.565 2.353-1.413.453.08.084 1.47.136 2.265.011.17.024.342.037.513-.017.155-.088.18-.207.089z" fill="#FEB55F"/>
            <path d="M100.705 38.365c1.218-.075 2.29.444 3.388.856.315.118.422.393.438.712-1.157.368-2.297.531-3.363-.265l-.463-1.303z" fill="#FEBA68"/>
            <path d="M101.168 39.668c1.129-.015 2.222.433 3.362.266l.523-.521c-.041.204-.07.582-.127.586-1.28.101-2.056 1.294-3.268 1.516-.403-.551-.504-1.184-.49-1.847z" fill="#FEC27B"/>
            <path d="M114.61 34.957c.004.858.047 1.719-.001 2.574-.032.584-.254.624-.491.062.694-.778-.079-1.835.493-2.636zM92.84 48.34l-.584-.25 2.688-.016c-.654.468-1.411.105-2.103.266zM101.44 69.11c.697-.001 1.408-.156 2.075.189-.69-.075-1.414.21-2.075-.19zM137.826 36.511c.017-.704-.144-1.426.214-2.094-.09.696.227 1.435-.214 2.094zM130.27 72.508c.616.025 1.258-.2 1.836.195-.612-.063-1.26.211-1.837-.195zM138.068 30.766c.07-.025.14-.055.207-.088-.028.547.208 1.124-.179 1.632l-.028-1.544zM116.71 64.829c.156-.203.215-.657.609-.24-.124.365.012.799-.292 1.115-.041-.315.028-.671-.317-.875zM106.308 69.291c.41-.285.874-.21 1.327-.207-.394.383-.88.172-1.327.207zM98.573 68.832c.45-.016.911-.095 1.315.201-.442-.039-.922.166-1.315-.201zM135.455 51.478c-.384.35-.851.213-1.294.222.38-.386.86-.17 1.294-.222z" fill="#FDFDFD"/>
            <path d="M115.962 52.786c-1.234-.955-2.045-2.304-3.117-3.409l.26-.263c3.957-1.228 7.938-2.386 11.69-4.196.778.352.033.617-.107.732a304.397 304.397 0 0 1-5.365 4.254 70.038 70.038 0 0 1-2.811 2.068c-.305.213-.544.42-.55.814z" fill="#FDC584"/>
            <path d="M106.09 40.722c-.22-.116-.476-.24-.405-.53.013-.05.434.001.666.006l-.26.524z" fill="#FECA8C"/>
            <path d="M127.912 53.31c.405.376.03.491-.217.626-1.396.76-2.69 1.712-4.2 2.258l-1.138-.06c1.735-1.244 3.665-1.993 5.555-2.825z" fill="#FECE94"/>
            <path d="M111.806 54.621c-.438-.063-.936.176-1.299-.262.438.064.935-.174 1.299.262z" fill="#FDBB6C"/>
            <path d="M110.507 54.359c-.438-.064-.935.175-1.299-.262.438.063.935-.175 1.299.262z" fill="#FDBB6C"/>
            <path d="M124.015 56.195h4.937a9.835 9.835 0 0 1-4.937 0zM129.211 56.195c.548-.504 1.215-.16 1.82-.262-.548.501-1.215.161-1.82.262z" fill="#FDC787"/>
            <path d="M89.454 50.708c.156.339.434.482.788.507 1.334 1.319 2.774 2.498 4.42 3.403 2.691 2.35 5.639 4.238 9.12 5.164.498.067.98.18 1.465.52-1.313.724-3.02.662-3.788 2.202l-.315.484v.001c-.835 1.235-1.973 2.073-3.326 2.657-1.402.606-2.786 1.256-4.178 1.887-.266.027-.538.135-.564.402-.026.25.238.283.462.308 1.679.19 3.357.39 5.035.588.393.367.872.162 1.314.202v-.001c.518.026 1.035.056 1.552.081.662.4 1.385.193 2.076.193.93 0 1.869-.009 2.8-.011.447-.036.815.174 1.334-.21 2.079-.66 3.637-2.197 5.456-3.54 0 .968-.42 2.043.215 3.119l3.164-3.806c.074-.012.15-.022.225-.03.344.205.276.56.317.876h.001c.02 1.644-.163 3.317.419 4.89.117.319.017 1.2.914.898.764-.256.645-.726.467-1.323-.475-1.588-.358-3.205-.15-4.834.854 2.295 2.103 4.373 3.144 6.551.149.31.234.757.648.702.373-.049.384-.51.5-.815.154-.404.334-.81.41-1.232.21-1.147.744-1.035 1.476-.46.672.528 1.158 1.301 2.021 1.58.935 1.086 2.242.653 3.394.853.577.406 1.224.201 1.836.201 2.217 1.05 3.924 2.85 5.948 4.285-.554-1.926-1.309-3.795-2.088-5.6V71.4c-.78-3.02-2.891-5.123-5.144-7.08.262-.517.744-.475 1.207-.531 2.669-.324 5.169-1.034 7.239-2.914 1.013-.92 2.126-1.739 3.195-2.596.179-.166.356-.248.535-.51.88-.787 1.76-1.374 2.638-2.07.55-.434.464-.737-.173-.977-2.127-.803-4.248-1.615-6.372-2.426v.001c-1.11-.738-2.352-.868-3.635-.82-.435.054-.915-.163-1.294.224-.73-.034-1.42.516-2.237.19l1.448-1.988c2.137-2.296 3.301-5.061 3.846-8.125l.037-.796c.411-1.193.364-2.448.488-3.68l.082-.79c.441-.66.098-1.399.188-2.095.019-.702.03-1.404.03-2.107v.04c.52-.508.217-1.068.246-1.593h.014v-.08c0-.17-.04-.342-.051-.513-.052-.795.31-2.185-.143-2.264-.87-.153-1.68.719-2.356 1.413-.028.028-.037.077-.054.117-.698.076-.977.79-1.557 1.046-.832.55-1.74 1.002-2.33 1.858-1.191.461-2.026 1.38-2.891 2.267-.611.626-1.251 1.222-2.006 1.955-.14-1.583.168-2.943-.335-4.232-.016-.13-.006-.268-.052-.385-1.412-3.582-2.83-7.16-3.109-11.071-.028-.4-.156-.87-.766-.867-.54.002-.943.054-1.282.619-1.417 2.368-3.027 4.627-4.335 7.053-1.213 2.252-2.716 4.479-2.335 7.28l-.09.004c-.572.801.2 1.859-.493 2.636-.622-.769-1.23-1.551-2.048-2.127-1.46-1.352-2.945-2.672-4.672-3.679-1.47-1.322-3.231-2.164-4.95-3.079-1.154-.828-2.435-1.407-3.918-2.102.374 1.594.336 3.049.868 4.408.096 2.512.904 4.895 1.307 7.352l.463 1.302c-.014.663.087 1.296.49 1.847.295 1.028.655 2.025 1.345 2.864.239 1.281 1.298 2.257 1.436 3.696-.56-.216-.998-.374-1.428-.551-1.011-.417-2.024-.803-3.146-.505-1.722-.034-3.236.916-4.921 1.055l-2.688.016.146.063a.476.476 0 0 1-.147-.063c-2.054.193-4.08-.36-6.256-.273 1.08 1.17 2.29 2.005 3.454 2.892zm6.777-.116c.005.014.007.028.013.042-.017 0-.032-.001-.05-.003l.037-.039z" fill="#FF8017" opacity=".2"/>
        </g>
        <g>
            <path d="M321.105 4.088c.645.75.802 1.65.8 2.6.183.226.113.494.121.747.024.733-.333.713-.78.354-.477-.382-.81-.901-1.145-1.403-.412-.619-.765-.61-1.358-.163-1.555 1.172-2.734 2.733-4.358 3.942 2.797-.1 5.447-.488 8.117-.613a.665.665 0 0 0 .46-.21c.601-.438 1.202.004 1.803.003-.564.64-.488 1.127.19 1.706.633.543 1.366 1.055 1.666 1.911-1.308 2.154-3.14 3.769-5.273 5.06-.204.124-.497.1-.75.146-1.245-.23-2-1.277-3.05-1.852-1.287-.703-2.527-1.218-4.03-.97-.668.11-1.373.071-2.057-.04a5.551 5.551 0 0 1-1.82-2.1c-.144-.578.304-.864.625-1.182 2.542-2.525 5.08-5.054 7.375-7.81.396-.476.847-.755 1.452-.33.581.937 1.376-.197 2.012.204z" fill="#83E07E"/>
            <path d="M324.037 33.53c-1.143 3.484-3.957 4.542-7.212 4.935-.558.068-1.128.03-1.693.04-.33.989-.092 2.005-.138 3.007-.033.74-.307 1.12-1.086 1.008-.364-.24-.259-.596-.234-.935.23-3.185-.313-6.186-2.07-8.915-.474-.736-.599-1.46.387-1.933 3.048-.594 5.626-2.148 8.079-3.957.344.279.179.713.321 1.053a7.91 7.91 0 0 1 .005 2.304c-.372 1.458-.371 1.46 1.168 1.163.816-.157 1.612-.065 2.4.165.276.68.166 1.373.073 2.066z" fill="#89E184"/>
            <path d="M312.248 30.94c-1.13.4-.698 1.016-.271 1.693 1.9 3.017 2.515 6.285 1.845 9.79.106.523.236 1.055-.486 1.259-.014-1.552-.085-3.107-.021-4.655.035-.857-.19-1.15-1.066-1.06-2.474.258-4.534-.505-5.997-2.604-.053-.657.534-.83.913-1.107.87-.637 1.75-1.265 2.626-1.893.343-.246.949-.409.616-1.07-.977-1.25-2.398-1.828-3.742-2.54-.575-.305-.725.265-1.099.333-.005-.043-.011-.086-.014-.13-.207-3.505-.262-3.733 3.507-2.532 1.495.476 2.776 1.387 3.929 2.457.523.161.417-.237.435-.501.054-.792-.093-1.59.084-2.379l.06-3.884c.292-.593-.029-1.252.2-1.852l.088-.281c.169-.656.551-1.17 1.258-.904.685.26.4.902.263 1.425l-.007 3.367a12.674 12.674 0 0 0 0 3.907c.052 1.47-1.293 1.822-2.11 2.583-.27.252-.7.335-1.011.579z" fill="#7CDF76"/>
            <path d="M311.276 113.83c-.526-1.536-1.18-3.044-1.529-4.62-.19-.863-.483-.959-1.17-.773-.947.093-1.893.123-2.839-.014-1.369-.205-2.767-.343-3.663-1.617-.108-.45.264-.603.524-.794 1.182-.871 2.34-1.776 3.562-2.592.35-.234.677-.585 1.158-.272.25.04.462 0 .567-.267.074-.534.071-1.098.628-1.424.321-.188.614-.315.822.134l.635 1.866c.96-1.214 1.834-2.375 3.23-2.958 1.418-.592 1.912-.333 2.073 1.169.28 2.613-.825 4.581-3.288 5.58-.724.294-.793.571-.563 1.23.472 1.346.867 2.72 1.293 4.082-.344.577-.86.96-1.44 1.27z" fill="#6BDB65"/>
            <path d="M319.03 4.088c-.372-.231-.72-.277-1.021.12-2.485 3.282-5.637 5.945-8.368 8.999-1.842-2.402-2.243-5.166-2.044-8.083.303-1.25.684-1.465 2.304-1.3 1.032.072 1.9.61 2.684 1.17.76.544.975.199 1.296-.391.71-1.308 1.294-2.71 2.542-3.645.686-.192 1.247-.884 2.073-.515l.261.259c-.494.71-.425 1.402.005 2.126.221.372.623.749.268 1.26z" fill="#71DB6B"/>
            <path d="M299.99 84.386c-2.533-.262-3.687-2.105-4.695-4.105-.132-.261-.187-.56-.278-.842.924-1.267 2.265-1.936 3.648-2.546a8.41 8.41 0 0 1 2.032 1.067c.229.162.432.568.743.331.292-.222.198-.635.097-.965-.517-1.695-.787-3.44-1.061-5.185.675-.485 1.286-.494 1.794.244l1.415 6.782c.704-1.238 1.327-2.13 2.156-2.828.779-.659 1.592-1.296 2.728-.803.247.107.273.303.282.523.341 2.097.17 2.426-1.622 3.391-2.494 1.345-5.144 2.218-8.096 2.748.685.444 1.206.972 1.37 1.728.086.408.032.724-.513.46z" fill="#74DC6F"/>
            <path d="M306.766 57.529c-.921 3.102-2.624 5.577-5.643 6.983-.285.132-.556.239-.624.584-.462.43-1.002.362-1.55.243-1.675-.561-3.46-.814-4.886-2.038-.489-.42-.99-.81-1.396-1.313-.308-.708.196-.95.698-1.115 4.127-1.347 8.22-2.808 12.442-3.84.338-.082 1.108-.553.959.496z" fill="#73DB6C"/>
            <path d="m315.327 58.83.103 1.064c.273.178-.252.808.429.755.704-.526.787-1.71 1.905-1.796 1.668-.47 3.148.196 4.644.765.19 1.373-.772 2.42-1.035 3.666.073.461-.296.591-.594.72-1.774.773-3.517 1.617-5.317 2.328-.854.337-1.74.46-2.649.473-1.37-.4-2.855-.621-3.433-2.236-.076-.184-.031-.362.131-.446 1.254-.65 2.365-1.585 3.785-1.905.67.036.503-.413.46-.79-.13-.44-.043-.892-.069-1.338 0-.346-.024-.694.006-1.037.04-.432-.226-1.04.477-1.16.692-.12 1.02.317 1.157.937z" fill="#78DC71"/>
            <path d="M311.651 93.302c-2.031-.693-2.899-2.316-3.388-4.24-.04-.399-.19-.811.153-1.16 1.724-.542 3.425-.253 5.124.142.38.168.765.33 1.142.507.473.223.878.93 1.366.668.406-.218.068-.945.157-1.438 1.207-.508 1.428-.41 1.721.768l.111.542c.213.208-.168.73.398.75.861-1.081 2.059-1.602 3.345-1.929 1.964-.5 2.463.025 1.915 1.949-.2.447-.607.6-1.034.696-3.125.704-6.158 1.73-9.223 2.642-.588.176-1.18.258-1.787.103z" fill="#5ED657"/>
            <path d="M290.066 57.542c-.64-.676-.672-1.61-1.009-2.415-.197-.47.16-.792.522-1.053.85-.09 1.702-.093 2.553.002 2.286.624 2.307.63 2.864-1.655.39-1.6 1.023-3.064 2.054-4.364.716-.904 1.346-.99 2.056-.082.74.947 1.431 1.94 1.917 3.054.254.312.095.622-.128.796-1.926 1.503-3.716 3.24-6.242 3.747-.033.007-.06.05-.089.076h-.006c.238-.116.41-.073.525.159-.192.513-.68.452-1.08.547-1.338.313-2.702.537-3.937 1.188z" fill="#84E07E"/>
            <path d="m319.013 99.307.075 1.783c.212.596-.104 1.249.196 1.835l.058 1.813c.23.689-.101 1.43.198 2.113l.076 2.063c.092.352.1.703-.01 1.054-.478.39-.979.63-1.574.234-.371-4.816-.748-9.632-1.109-14.448-.074-.99-.114-1.962-1.538-1.73-.063-.382.209-.56.478-.68 1.9-.845 3.852-1.521 5.954-1.632.353-.019.812-.112.854.478-.74 1.085-1.778 1.665-3.07 1.85-.47.067-1.086.014-1.036.792.207.503-.1 1.073.2 1.564l.055 1.302c.208.52-.073 1.097.193 1.609z" fill="#6BDB66"/>
            <path d="M306.766 57.529c-.17-.728-.637-.235-.907-.167-4.229 1.062-8.319 2.58-12.493 3.824-.443.132-.664.362-.7.802-.441-.607-1.092-1.07-1.287-1.848.153-.23.392-.338.638-.415 3.443-1.09 6.544-2.87 9.6-4.747.273-.1.557-.132.846-.14 1.205-.09 2.38.11 3.535.402.599.152 1.277.354 1.032 1.252-.02.363.066.753-.264 1.037z" fill="#84E17F"/>
            <path d="M299.99 84.386c.242-.52.058-1.11-.495-1.54-.204-.16-.425-.297-.638-.443-.172-.118-.344-.235-.528-.495 1.757.01 3.309-.697 4.933-1.13 1.66-.443 3.08-1.343 4.604-2.048 1.265-.586.958-1.672.985-2.671.791 2.85-.679 6.272-3.323 7.415-.692.298-.596.694-.627 1.177-.524.434-1.115.406-1.725.247-.537-.574-1.221-.117-1.823-.256-.45-.105-.953.069-1.363-.256z" fill="#7ADD74"/>
            <path d="M312.813 66.805c3.01-.793 5.8-2.122 8.56-3.521 2.493.49 2.59.811 1.03 2.766-1.252 1.57-2.815 2.406-4.816 2.137-1.172-.158-1.755.032-1.436 1.351.058.242-.013.515-.025.773-.538.402-1.11.572-1.755.26.044-.865.02-1.72-.129-2.582-.148-.857-.55-1.273-1.429-1.184z" fill="#7ADE74"/>
            <path d="M301.55 55.188c-2.029 1.743-4.466 2.777-6.855 3.875-1.051.483-2.126.982-3.316 1.077-.734-.717-1.142-1.597-1.313-2.598.033-.597.431-.712.94-.824 1.349-.297 2.682-.667 4.022-1.008 2.119-.857 4.27-1.318 6.522-.522z" fill="#7EDF79"/>
            <path d="M320.96 138.853c-.47-2.31-.608-4.67-1.074-6.986-.22-1.102-1.058-1.676-1.518-2.546-.297-.56-.592-1.123-.888-1.684-.16-1.113.46-1.224 1.32-1.026l.45.338.081-.84c.412-.412.799-.896 1.486-.52.49 1.577.449 3.233.716 4.845.35 2.112.571 4.247.847 6.372-.538.638-.816 1.455-1.42 2.047z" fill="#64D75E"/>
            <path d="M322.961 9.343c.048.201.167.44-.186.475-1.842.178-3.684.454-5.529.488-1.162.02-2.294.36-3.696.261 1.543-1.451 2.874-2.845 4.353-4.058 1.684-1.382 1.743-1.312 3.076.472.223.3.309.728.778.817.269-.345.072-.747.148-1.11.358.46.276.988.114 1.455-.328.948.06 1.246.942 1.2z" fill="#92E48E"/>
            <path d="M315.376 20.505c-.088-.4.227-.972-.252-1.182-.584-.257-.914.3-1.27.661.762-2.356-.527-3.664-2.393-4.678 3.088-1.013 5.686.023 8.071 1.932.368.294.712.62 1.067.93-1.181.802-2.5.718-3.714.291-1.117-.393-1.353-.108-1.263.94.031.368.067.79-.246 1.106z" fill="#8BE286"/>
            <path d="M307.32 103.148c-1.92.974-3.505 2.427-5.245 3.658-.587-.56-1.37-.954-1.555-1.85-.211-.256-.2-.555-.125-.843.294-1.147 2.182-2.603 3.244-2.518 1.324.289 2.65.573 3.68 1.553z" fill="#72DB6C"/>
            <path d="m316.382 72.663 1.025 10.428c-.687.122-1.22.498-1.669 1.011l-.91-10.39c.296-.678.798-1.05 1.554-1.05z" fill="#79DD73"/>
            <path d="M322.671 92.19c-1.202-.38-2.356.04-3.476.324-1.32.335-2.636.767-3.81 1.51a6.804 6.804 0 0 1-3.734-.722l12.044-3.441c-.155.858-.44 1.659-1.024 2.33z" fill="#7FE07A"/>
            <path d="M312.248 30.94c.694-.607 1.368-1.24 2.091-1.812.377-.298.76-.545.788-1.077.143-.187.27-.39.482-.513.577-.814 1.346-1.429 2.172-1.954 1.313-.836 2.135-.387 2.29 1.196-1.752 2.031-4.032 3.167-6.567 3.867-.415.114-.837.196-1.256.294z" fill="#85E07E"/>
            <path d="m314.316 116.98 3.422 7.545c-.016.877-.672.956-1.314 1.052-1.29-2.01-2.097-4.253-3.103-6.4-.178-.382-.322-.778-.482-1.168.18-.79.496-1.386 1.477-1.029z" fill="#58D451"/>
            <path d="M301.55 55.188c-2.2-.145-4.355.27-6.523.522-.129-.007-.306.039-.378-.028-.385-.36.12-.245.187-.274 2.129-.88 3.913-2.299 5.746-3.642.264-.194.434-.408.44-.737.557.991 1.03 2.018 1.31 3.125 1.023.34.374.687.002 1.031l-.784.003z" fill="#8DE288"/>
            <path d="m323.404 142.78 1.36 7.832c-.349.635-.885.682-1.502.475-.65-2.562-1.244-5.134-1.352-7.79-.077-.678.352-1 .902-1.143.463-.12.497.316.592.625z" fill="#54D44D"/>
            <path d="M305.415 86.742c.586 2.25 1.174 4.498 1.756 6.748.065.25.1.509.148.764.116 1.236-.66 1.179-1.499 1.033-.577-2.778-1.64-5.444-1.903-8.294.443-.422.917-.656 1.498-.25z" fill="#60D759"/>
            <path d="M305.566 29.086c.166-.616.377-1.07 1.166-.645 1.426.77 3 1.317 3.952 2.76.01.088.029.22-.02.245-1.863.937-3.777 1.606-5.907 1.055-.235-1.102.158-1.683 1.422-1.545l-.613-1.87z" fill="#6EDB68"/>
            <path d="M298.948 65.339c.46-.447 1.034-.162 1.551-.243.914 2.351 1.16 4.865 1.771 7.29-.557-.384-1.188-.22-1.794-.245l-1.528-6.802z" fill="#7BDE76"/>
            <path d="M302.334 55.185c-.044-.343.622-.689-.003-1.03 1.234-.327 2.234-1.19 3.501-1.467 1.367-.297 1.827-.021 1.697 1.334-.079.83-.098 1.695-.5 2.47-.032-.844-.772-.89-1.292-.968-1.124-.169-2.245-.473-3.403-.339z" fill="#95E490"/>
            <path d="m313.336 43.682.486-1.259c.79-.09 1.032-.532 1.05-1.315.02-.866-.329-1.79.26-2.603-.02 4.253-.038 8.507-.056 12.76-.814-.276-.512-.99-.573-1.536-.088-.794.11-1.637-.575-2.63-.013 1.84.004 3.388-.011 4.936-.006.6.084 1.221-.252 1.779-.113.133-.23.138-.353.016l.024-10.148z" fill="#A2E79F"/>
            <path d="M313.296 62.217c-1.165 1.018-2.688 1.44-3.916 2.352-.8-.716-.767-1.77-.996-2.686-.196-.781.256-1.345 1.17-1.212 1.373.198 2.667.615 3.742 1.546z" fill="#73DB6C"/>
            <path d="M313.537 53.914v-7.561c.915.61 1.36 1.15 1.347 2.11-.014.93-.274 1.9.192 2.802l.108 2.645c.08.271.091.54-.021.807-.492.43-1.008.763-1.694.43-.039-.414-.13-.832.068-1.233z" fill="#97E592"/>
            <path d="M304.757 32.501c2.034-.166 4.046-.436 5.927-1.3.94.707-.076.953-.367 1.183-1.32 1.038-2.704 1.994-4.065 2.98-.847-.773-1.054-1.88-1.495-2.863z" fill="#73DC6D"/>
            <path d="m320.047 114.203.079 2.265c.18.446-.036.944.183 1.385l-.006 2.006c-.518.436-1.033.36-1.547-.008-.343-1.81-.385-3.644-.471-5.475.322-.614.83-.898 1.522-.857.177.194.128.467.24.684z" fill="#5DD556"/>
            <path d="M326.62 12.963c-1.028-.968-2.056-1.936-3.167-2.98l1.312-.638c.086-.01.174-.04.257-.029 1.057.136 2.425.03 2.88 1.063.44.999-.717 1.77-1.281 2.584z" fill="#73DA6D"/>
            <path d="M315.738 84.102c.079-1.124.645-1.446 1.67-1.011l.518 5.458c-.256-.967-1.035-.763-1.72-.768-.484-1.185-.112-2.478-.468-3.679z" fill="#6AD964"/>
            <path d="M322.408 59.618c-1.6.065-3.061-.721-4.644-.765.985-1.34 2.485-1.634 3.966-1.762.928-.08 1.16.911.678 2.527z" fill="#87E082"/>
            <path d="M314.316 116.98c-.69.059-1.134.472-1.477 1.029l-1.562-4.178c.214-.724.84-.984 1.44-1.27l1.6 4.42z" fill="#63D95D"/>
            <path d="M298.665 76.893c-1.106 1.007-2.446 1.678-3.648 2.546-.037-.022-.094-.036-.107-.068-.386-.956-.811-2.196-.215-2.885.66-.765 1.905-.177 2.882.065.368.092.725.227 1.088.342z" fill="#6FDB6A"/>
            <path d="M303.64 101.595c-1.325.281-2.884 1.96-3.12 3.36-.16-.245-.36-.474-.474-.74-.387-.903-.946-1.956-.324-2.786.541-.723 1.6-.318 2.433-.14.494.106 1.055-.106 1.484.306z" fill="#85E181"/>
            <path d="M319.03 4.088c-.3-.604-.652-1.187-.884-1.815-.241-.654-.428-1.375.612-1.57 1.07.928 1.906 2.02 2.347 3.385-.692-.024-1.384 1.526-2.075 0z" fill="#55D44F"/>
            <path d="M309.336 101.591c-1.123-.288-1.037.782-1.45 1.29l-1.044-3.648c.043-.914.4-1.533 1.429-1.525l1.065 3.883z" fill="#74DC6E"/>
            <path d="M320.96 138.853c.105-.938.551-1.638 1.42-2.047.262 1.203.575 2.398.564 3.643-.141.95-.562 1.095-1.507.521-.16-.705-.318-1.411-.477-2.117z" fill="#55D54E"/>
            <path d="m313.558 55.189 1.548-.52c.315.415-.015.947.249 1.372l-.027 2.79c-.338-.37-.675-.906-1.234-.666-.529.228-.2.832-.267 1.266-.039.25-.028.506-.04.76-.112.04-.184.007-.21-.113-.03-1.376-.058-2.753-.087-4.13-.069-.261-.133-.522.068-.76z" fill="#86E080"/>
            <path d="M308.27 97.708c-.606.387-1.22.765-1.428 1.525l-1.022-3.946c.506-.335 1.455-.028 1.499-1.033l.952 3.454z" fill="#81E17C"/>
            <path d="m318.755 119.851 1.548.008.09-.02c.169.452-.043.953.18 1.399l-.024 1.986c-.398.447-.797.891-1.483.523-.2-1.29-.36-2.585-.31-3.896z" fill="#54D34D"/>
            <path d="m318.032 110.202 1.529-.264c.16.06.181.212.225.348l-.013 2.536c-.325.613-.815.898-1.516.763-.168-1.121-.317-2.244-.225-3.383z" fill="#64D95E"/>
            <path d="m316.382 72.663-1.555 1.049c-.45-1.004.094-2.152-.456-3.141.574-.162 1.145-.342 1.755-.26.34.756.291 1.555.256 2.352z" fill="#76DC70"/>
            <path d="m313.54 88.044-5.24-.01a.823.823 0 0 1-.002-.765c.25-.334.575-.517.998-.432 1.446.29 2.93.449 4.244 1.207z" fill="#6CD965"/>
            <path d="m319.065 123.747 1.484-.523c.357.758.331 1.56.268 2.365l-1.486.52c-.138-.782-.347-1.555-.266-2.362z" fill="#78DD72"/>
            <path d="m305.415 86.742-1.498.25c-.476-.617-.408-1.426-.74-2.094.533-.368 1.141-.221 1.724-.247.278.671.47 1.363.514 2.091z" fill="#74DC6D"/>
            <path d="M316.424 125.577c.33-.485 1.093-.43 1.314-1.052l1.062 2.086c-.592.147-1.231.233-1.32 1.026-.512-.605-.824-1.312-1.056-2.06z" fill="#78DD72"/>
            <path d="m323.262 151.087 1.502-.475c.077.149.233.307.217.446-.079.709.674 1.882-.683 1.94-1.24.054-1.01-1.089-1.036-1.911z" fill="#9CE799"/>
            <path d="M321.437 140.97c.578.045 1.232.311 1.506-.52.383.73.27 1.56.461 2.33-.92-1.043-1.047.195-1.494.517-.417-.723-.508-1.512-.473-2.327z" fill="#5DD856"/>
            <path d="M309.901 3.825c-.945.12-1.89.24-2.304 1.3.02-1.65.508-1.925 2.304-1.3z" fill="#87E282"/>
            <path d="M318.496.444c-.73.017-1.27.794-2.073.514.556-.713 1.106-1.456 2.073-.514z" fill="#8AE385"/>
            <path d="m318.257 113.585 1.516-.763.1-.019c.07.274.15.549-.08.793l-1.508.78c-.01-.264-.02-.527-.028-.79z" fill="#83E07F"/>
            <path d="M315.608 27.538c-.01.313-.2.456-.481.513.124-1.39-.129-2.802.242-4.178.135 1.218-.24 2.47.24 3.665zM313.507 26.001c-.005.93.016 1.862-.023 2.79-.023.57-.266.408-.496.09.738-.859-.081-1.997.519-2.88zM305.738 108.423l2.838.014c-.947.312-1.894.332-2.838-.014zM292.132 54.076l-2.554-.001a3.614 3.614 0 0 1 2.554.001zM320.396 30.137l-.005-2.304c.327.767.32 1.535.005 2.304zM319.54 106.85c-.287-.683-.194-1.402-.198-2.112.427.67.129 1.409.198 2.113zM315.355 56.04c-.337-.41-.13-.92-.25-1.371l.079-.759c.393.684.124 1.42.17 2.13zM324.037 33.53l-.073-2.064c.473.672.378 1.365.073 2.065zM313.558 55.189l-.068.76c-.4-.679-.124-1.412-.177-2.119.075.026.15.054.224.084l.02 1.275zM308.298 87.269l.002.764-.037 1.029c-.28-.604-.322-1.202.035-1.793zM313.768 20.265c-.004.624.103 1.26-.201 1.851.062-.617-.218-1.272.2-1.85zM319.284 102.925c-.285-.588-.202-1.216-.196-1.835.4.576.13 1.224.196 1.835zM319.013 99.307c-.263-.513-.206-1.063-.193-1.609.393.497.151 1.07.193 1.609zM315.858 60.65l-.254.375c-.061-.089-.169-.174-.175-.267-.02-.287-.002-.576.001-.865l.428.756zM318.766 96.397c-.286-.494-.211-1.033-.201-1.565.383.481.14 1.043.2 1.565zM320.572 121.238c-.225-.446-.214-.92-.178-1.4.347.43.164.928.178 1.4zM318.435 89.841c-.853.133-.21-.528-.398-.75l.398.75zM313.576 60.078c.072.035.142.072.21.112l-.03 1.238c-.354-.411-.159-.895-.18-1.35zM320.309 117.853c-.279-.433-.188-.915-.183-1.385.367.421.164.918.183 1.385zM319.793 113.596l.08-.793c.346.43.163.927.174 1.4l-.254-.607zM319.786 110.286l-.225-.348.056-1.024c.347.422.154.91.17 1.372z" fill="#FDFDFD"/>
            <path d="M325.022 9.316c-.083-.01-.171.019-.257.03-.601 0-1.202-.442-1.804-.004-.882.046-1.27-.25-.942-1.2.151-.437.228-.927-.055-1.364a.532.532 0 0 0-.06-.09c.003-.95-.154-1.85-.8-2.6-.44-1.364-1.276-2.457-2.346-3.386l-.262-.258c-.967-.942-1.517-.2-2.073.514-1.247.936-1.831 2.338-2.542 3.645-.32.59-.536.936-1.296.391-.783-.56-1.675-1.097-2.707-1.17-1.796-.624-2.327-.349-2.327 1.3-.26 2.917.225 5.681 2.067 8.083a5.58 5.58 0 0 0 1.832 2.1c1.865 1.013 3.16 2.321 2.399 4.677-.03.094-.055.188-.084.281-.419.58-.138 1.234-.2 1.852l.002-.004v.004l-.06 3.884c-.6.883.218 2.022-.52 2.88-1.152-1.07-2.433-1.98-3.928-2.457-3.769-1.2-3.714-.973-3.507 2.532.003.044.01.087.014.13l.612 1.87c-1.263-.138-1.657.444-1.422 1.545.442.984.649 2.09 1.495 2.862 1.464 2.099 3.524 2.861 5.997 2.604.876-.09 1.101.203 1.066 1.06-.063 1.548.007 3.103.021 4.655l-.023 10.148h.001-.001c.053.707-.222 1.44.177 2.118l.087 4.13c.02.455-.174.939.18 1.35.043.377.209.826-.46.79-1.075-.933-2.37-1.35-3.743-1.548-.914-.132-1.365.431-1.17 1.212.23.916.196 1.97.997 2.687.577 1.614 2.063 1.835 3.433 2.235.104-.001.208-.004.31-.009.665.034.989.445 1.118 1.193.15.863.173 1.718.13 2.582.55.99.006 2.137.456 3.141l.91 10.39c.356 1.202-.015 2.495.467 3.68-.088.493.25 1.22-.156 1.438-.49.263-.893-.445-1.367-.668-.376-.178-.761-.34-1.142-.508-1.313-.758-2.798-.917-4.244-1.207-.423-.084-.747.099-.998.432-.357.591-.315 1.165-.035 1.769.49 1.924 1.357 3.694 3.388 4.215h.002c1.175.522 2.42.859 3.732.746 1.424-.231 1.464.752 1.538 1.743.361 4.817.738 9.638 1.11 14.454-.093 1.139.056 2.265.224 3.386l.027.792c.087 1.832.129 3.667.471 5.477-.05 1.31.112 2.605.31 3.896-.081.807.128 1.58.266 2.362l-.082.84-.45-.337-1.06-2.087-3.423-7.544-1.6-4.42c-.426-1.363-.821-2.736-1.293-4.083-.23-.658-.161-.935.563-1.23 2.463-.998 3.568-2.966 3.288-5.58-.16-1.502-.655-1.76-2.074-1.168-1.395.583-2.27 1.743-3.229 2.958l-.635-1.866-1.065-3.884-.952-3.454c-.048-.255-.082-.513-.147-.763-.583-2.25-1.17-4.5-1.756-6.748-.045-.728-.237-1.42-.514-2.091.03-.484-.065-.88.627-1.178 2.644-1.143 4.114-4.565 3.322-7.415-.01-.22-.035-.416-.282-.523-1.137-.493-1.949.144-2.728.803-.828.699-1.452 1.59-2.156 2.828l-1.415-6.782c-.61-2.425-.856-4.938-1.77-7.289.067-.345.338-.451.623-.584 3.02-1.406 4.722-3.88 5.643-6.983.33-.284.245-.673.264-1.037.401-.774.42-1.64.5-2.47.13-1.355-.33-1.63-1.697-1.333-1.268.275-2.268 1.139-3.501 1.466-.263-1.038-.695-2.005-1.207-2.94a.578.578 0 0 0-.102-.186c-.486-1.113-1.177-2.106-1.917-3.054-.71-.908-1.34-.822-2.056.083-1.03 1.3-1.664 2.763-2.054 4.364-.557 2.284-.578 2.314-2.864 1.69-.85-.312-1.701-.228-2.552.033h-.001c-.362.26-.72.547-.522 1.018.337.804.37 1.72 1.01 2.396.17 1.001.584 1.873 1.318 2.59.196.778.772 1.237 1.294 1.844v-.002c.521.503.901.891 1.39 1.311 1.426 1.224 3.208 1.476 4.883 2.037l1.525 6.802c.274 1.745.544 3.49 1.061 5.186.1.329.194.742-.098.964-.311.237-.514-.169-.743-.33a8.406 8.406 0 0 0-2.032-1.068c-.362-.115-.72-.25-1.088-.342-.976-.242-2.22-.83-2.881-.065-.597.69-.171 1.93.215 2.885.013.032.07.046.106.068.091.281.146.58.278.842 1.008 2 2.162 3.843 4.695 4.105.41.324.914.151 1.363.255.602.14 1.286-.317 1.824.256.333.668.264 1.504.74 2.121.264 2.85 1.326 5.452 1.903 8.32h-.037c.34 1.304.725 2.58.985 3.895.522 1.215.733 2.431 1.08 3.647-.104.267-.298.307-.547.267-1.031-.98-2.348-1.264-3.67-1.553-.43-.412-.987-.2-1.48-.306-.833-.178-1.89-.583-2.431.14-.622.83-.062 1.883.325 2.786.097.227.257.428.401.635.021.036.045.071.073.105.186.897.969 1.291 1.556 1.85.896 1.275 2.294 1.414 3.663 1.618.945.345 1.891.326 2.84.014.686-.186.979-.09 1.17.773.348 1.576 1.002 3.084 1.529 4.621l1.562 4.178c.16.39.304.786.483 1.167 1.005 2.148 1.812 4.392 3.103 6.402.232.747.544 1.454 1.056 2.059.295.562.59 1.124.887 1.685.46.87 1.298 1.444 1.519 2.545.466 2.317.603 4.676 1.073 6.986l.478 2.118c-.035.814.056 1.603.473 2.326.108 2.656.701 5.228 1.352 7.79.026.822-.204 1.965 1.035 1.912 1.357-.06.605-1.232.684-1.94.016-.14-.14-.298-.217-.447l-1.36-7.832c-.19-.77-.079-1.599-.46-2.33.01-1.246-.302-2.44-.565-3.644-.276-2.125-.496-4.26-.846-6.372-.268-1.611-.227-3.267-.717-4.844.064-.806.09-1.607-.268-2.365l.023-1.987c-.014-.472.17-.97-.178-1.4l-.09.02.005-2.005c-.019-.467.184-.963-.183-1.384l-.079-2.265a.587.587 0 0 1-.037-.088c.013.028.025.058.037.087-.01-.473.172-.969-.175-1.4l-.099.02.013-2.536c-.015-.463.179-.951-.17-1.373l-.076-2.063c-.069-.704.229-1.442-.198-2.113l-.058-1.812c-.066-.612.205-1.26-.196-1.836l-.075-1.783c-.042-.539.2-1.112-.193-1.608l-.054-1.302c-.06-.522.182-1.083-.2-1.564-.05-.778.565-.725 1.036-.793 1.292-.184 2.33-.764 3.07-1.85.583-.67.868-1.47 1.023-2.329.549-1.924.05-2.448-1.915-1.948-1.286.327-2.483.847-3.344 1.928l-.338-.636a.229.229 0 0 0-.06-.113l-.111-.543-.519-5.458-1.025-10.428c.035-.797.084-1.596-.256-2.352.011-.258.083-.531.024-.773-.318-1.32.265-1.509 1.437-1.351 2 .269 3.564-.567 4.816-2.137 1.56-1.955 1.463-2.276-1.03-2.766.263-1.245 1.225-2.293 1.034-3.666.483-1.616.251-2.607-.677-2.527-1.481.128-2.982.423-3.966 1.762-1.119.087-1.202 1.27-1.906 1.797l-.346-.61c-.007-.06-.03-.112-.082-.146l-.103-1.064c.009-.93-.015-1.86-.006-2.79-.046-.71.319-1.446-.203-2.13 0-.882-.039-1.851-.075-2.633h.016c.019-4.172.046-8.513.064-12.766.565-.01 1.14.025 1.698-.043 3.255-.393 6.083-1.452 7.227-4.936.305-.7.463-1.394-.059-2.067-.782-.23-1.596-.322-2.412-.165-1.54.297-1.573.295-1.202-1.163.315-.768.223-1.536-.038-2.303v-.001c0-.34.05-.774-.294-1.053-.154-1.583-.963-2.032-2.276-1.197-.826.526-1.583 1.141-2.16 1.955-.48-1.196-.228-2.447-.228-3.665 0-1.123 0-2.245.002-3.368.313-.316.275-.738.243-1.107-.09-1.047.145-1.332 1.262-.939 1.214.427 2.532.51 3.713-.29.253-.046.545-.023.75-.147 2.133-1.291 3.964-2.906 5.272-5.06.564-.814 1.721-1.584 1.281-2.583-.455-1.03-1.822-.925-2.88-1.06zm-30.454 46.328.021-.023.01.01-.031.013-.004.004h-.006l.01-.004z" fill="#FFDE1D" opacity=".2"/>
        </g>
    </g>
</svg>
