<svg width="22" height="26" xmlns="http://www.w3.org/2000/svg">
    <g fill="none" fill-rule="evenodd">
        <path d="M0 0h21.2v25.009H0z"/>
        <path d="M17.984 1.947C16.83.63 14.744.067 12.076.067H4.331a1.11 1.11 0 0 0-1.095.936L.011 21.455a.665.665 0 0 0 .657.768H5.45l1.201-7.616-.037.238a1.105 1.105 0 0 1 1.091-.935h2.272c4.464 0 7.959-1.813 8.98-7.057.03-.155.056-.306.079-.454-.13-.068-.13-.068 0 0 .304-1.938-.002-3.258-1.05-4.452" fill="#27346A" fill-rule="nonzero"/>
        <path d="M8.48 5.7a.972.972 0 0 1 .418-.094h6.072c.719 0 1.39.047 2.002.146a8.414 8.414 0 0 1 1.223.292c.301.1.582.218.84.355.304-1.939-.002-3.258-1.05-4.452C16.83.63 14.744.067 12.075.067H4.331c-.546 0-1.01.398-1.095.936L.011 21.454a.664.664 0 0 0 .657.769h4.781L7.941 6.425A.97.97 0 0 1 8.48 5.7z" fill="#27346A" fill-rule="nonzero"/>
        <path d="M18.956 6.853c-1.021 5.243-4.516 7.057-8.98 7.057H7.704c-.546 0-1.006.397-1.09.935l-1.495 9.47a.582.582 0 0 0 .574.673h4.03a.97.97 0 0 0 .958-.818l.04-.205.76-4.815.048-.266a.97.97 0 0 1 .958-.818h.603c3.904 0 6.962-1.586 7.855-6.174.373-1.917.18-3.517-.807-4.642a3.85 3.85 0 0 0-1.103-.85c-.024.147-.05.298-.08.453z" fill="#2790C3" fill-rule="nonzero"/>
        <path d="M17.966 5.973a7.447 7.447 0 0 0-.481-.123c-.17-.038-.34-.07-.512-.098a12.6 12.6 0 0 0-2.003-.146H8.899a.967.967 0 0 0-.958.819l-1.29 8.182-.037.238a1.104 1.104 0 0 1 1.09-.935h2.273c4.463 0 7.958-1.813 8.98-7.057a12.5 12.5 0 0 0 .079-.454 5.513 5.513 0 0 0-1.07-.426" fill="#1F264F" fill-rule="nonzero"/>
    </g>
</svg>
