<svg width="90" height="58" xmlns="http://www.w3.org/2000/svg">
    <g fill-rule="nonzero" fill="none">
        <path d="M72.774 34.194c-.827.31-2.28.566-3.96.771-4.572.559-10.836.757-10.836.757s-32.204 2.72-56.34-7.396c0 0-3.51-1.874-.254-4.396a10.573 10.573 0 0 1 1.594-.99l.04-.04c.37-.35.77-.663 1.196-.94 1.25-.823 3.361-1.798 5.931-1.356l63.391 10.44s2.316 1.993-.762 3.15z" fill="#DDD"/>
        <path d="m60.144 29.463 13.27-9.589 5.85 1.03-5.728 10.14s-13.24.108-13.392-1.581zM26.734 23.637l26.434-7.549 4.26.907-11.94 5.47-3.732 4.252z" fill="#DDD"/>
        <path d="M68.813 34.965c-4.571.559-10.835.757-10.835.757s-32.204 2.72-56.34-7.396c0 0-3.51-1.874-.254-4.396l.011.046s5.208 3.585 30.092 6.577l37.326 4.412z" fill="#71D43E"/>
        <path d="m64.565 34.758 11.817 4.914 2.97-.335-7.07-5.41s-8.55-1.858-7.717.831z" fill="#DDD"/>
        <path d="M5.68 24.501c-.563.01-1.855-.953-2.658-1.602.37-.348.77-.662 1.196-.938.647.506 1.8 1.325 2.44 1.293.926-.039-.128 1.232-.977 1.247z" fill="#71D43E"/>
        <path d="m59.37 51.744-7.588.404L30.449 37.5l-3.96-2.72-1.924-1.322c3.61-3.103 18.333 1.177 18.333 1.177.282.242.372.645.359 1.09-.025.832-.409 1.81-.557 2.162-.036.086-.058.132-.058.132L59.37 51.744z" fill="#DDD"/>
        <path d="m34.381 44.149-1.316.848.797-1.477a1.285 1.285 0 0 0-.794-.288h-.021a1.431 1.431 0 0 1-.273-.021l-.445.288.19-.354a1.593 1.593 0 0 1-.778-.603l-.797.517.503-.933c-.466-.57-1.094-.918-1.785-.918-.83 0-1.567.501-2.044 1.284-.288.477-.805.76-1.355.741h-.044c-.915 0-1.656 1.056-1.656 2.36 0 1.303.741 2.36 1.656 2.36.202-.001.4-.052.577-.148a2.355 2.355 0 0 1 2.005-.04 2.057 2.057 0 0 0 1.705 0 2.354 2.354 0 0 1 1.987.04c.177.093.373.142.572.143.915 0 1.656-1.056 1.656-2.36a3.042 3.042 0 0 0-.34-1.44z" fill="#F2F2F2"/>
        <path d="M31.905 47.602a2.414 2.414 0 0 0-1.42.156 2.05 2.05 0 0 1-1.704 0 2.35 2.35 0 0 0-2.005.04 1.23 1.23 0 0 1-.578.148c-.812 0-1.489-.835-1.63-1.935.163-.12.301-.272.407-.446.477-.782 1.215-1.283 2.044-1.283.828 0 1.559.491 2.035 1.267a1.56 1.56 0 0 0 1.35.756h.021c.647-.002 1.207.526 1.48 1.297z" fill="#000" opacity=".03"/>
        <path d="m71.544 43.028-1.316.849.797-1.477a1.285 1.285 0 0 0-.794-.289h-.02a1.431 1.431 0 0 1-.273-.02l-.446.287.19-.353a1.593 1.593 0 0 1-.778-.604l-.797.518.503-.933c-.465-.57-1.094-.92-1.785-.92-.829 0-1.567.503-2.044 1.285-.287.477-.805.76-1.354.742h-.044c-.915 0-1.657 1.056-1.657 2.36 0 1.303.742 2.359 1.657 2.359.2 0 .399-.052.576-.148a2.355 2.355 0 0 1 2.006-.04 2.057 2.057 0 0 0 1.705 0 2.354 2.354 0 0 1 1.987.04c.176.093.372.143.571.143.915 0 1.657-1.056 1.657-2.36a3.042 3.042 0 0 0-.34-1.439z" fill="#F2F2F2"/>
        <path d="M69.068 46.48a2.414 2.414 0 0 0-1.42.158 2.05 2.05 0 0 1-1.704 0 2.35 2.35 0 0 0-2.005.04 1.23 1.23 0 0 1-.577.147c-.813 0-1.49-.835-1.63-1.935.163-.12.3-.271.406-.445.477-.782 1.215-1.284 2.044-1.284s1.56.491 2.035 1.267c.29.477.804.764 1.355.756h.02c.643-.001 1.204.526 1.476 1.297z" fill="#000" opacity=".03"/>
        <path d="m71.544 14.752-1.316.848.797-1.477a1.285 1.285 0 0 0-.794-.288h-.02a1.431 1.431 0 0 1-.273-.021l-.446.288.19-.354a1.593 1.593 0 0 1-.778-.603l-.797.517.503-.933c-.465-.57-1.094-.918-1.785-.918-.829 0-1.567.501-2.044 1.284-.287.477-.805.76-1.354.741h-.044c-.915 0-1.657 1.056-1.657 2.36 0 1.303.742 2.36 1.657 2.36.2-.001.399-.052.576-.148a2.355 2.355 0 0 1 2.006-.04c.542.248 1.162.25 1.705.005a2.354 2.354 0 0 1 1.987.038c.176.094.372.144.571.144.915 0 1.657-1.056 1.657-2.36.007-.502-.11-.998-.34-1.443z" fill="#F2F2F2"/>
        <path d="M69.068 18.205a2.414 2.414 0 0 0-1.42.156 2.05 2.05 0 0 1-1.704 0 2.35 2.35 0 0 0-2.005.04 1.23 1.23 0 0 1-.577.148c-.813 0-1.49-.835-1.63-1.935.163-.12.3-.272.406-.446.477-.782 1.215-1.283 2.044-1.283s1.56.491 2.035 1.267c.29.477.804.764 1.355.756h.02c.643-.002 1.204.526 1.476 1.297z" fill="#000" opacity=".03"/>
        <path d="m17.194 11.701-.656.423.398-.736a.638.638 0 0 0-.396-.145h-.01a.793.793 0 0 1-.136-.01l-.222.143.095-.172a.794.794 0 0 1-.389-.301l-.397.258.254-.464a1.154 1.154 0 0 0-.89-.459c-.414 0-.782.25-1.016.64a.758.758 0 0 1-.678.37h-.022c-.456 0-.826.528-.826 1.178 0 .65.37 1.177.826 1.177.1 0 .2-.026.288-.073.315-.156.68-.164 1-.02.27.122.578.122.847 0 .318-.14.68-.133.992.02a.62.62 0 0 0 .284.071c.456 0 .826-.527.826-1.177.004-.252-.056-.5-.172-.723z" fill="#F2F2F2"/>
        <path d="M15.96 13.423a1.195 1.195 0 0 0-.71.079 1.022 1.022 0 0 1-.85-.003 1.174 1.174 0 0 0-1 .021.607.607 0 0 1-.288.073c-.405 0-.743-.416-.813-.964.08-.06.15-.136.203-.223.237-.39.605-.64 1.016-.64.41 0 .777.247 1.016.632a.777.777 0 0 0 .677.377h.011c.32 0 .601.264.737.648z" fill="#000" opacity=".03"/>
        <path d="m75.606 53.857-.656.423.398-.736a.638.638 0 0 0-.396-.145h-.01a.793.793 0 0 1-.137-.01l-.222.143.095-.173a.794.794 0 0 1-.388-.3l-.397.258.254-.464a1.154 1.154 0 0 0-.89-.46c-.414 0-.782.25-1.017.641a.758.758 0 0 1-.677.37h-.022c-.456 0-.826.528-.826 1.178 0 .65.37 1.177.826 1.177.1 0 .2-.026.288-.074.314-.156.68-.163 1-.02.27.122.577.122.847 0 .318-.14.68-.133.991.02a.62.62 0 0 0 .285.072c.456 0 .826-.527.826-1.177.003-.252-.056-.5-.172-.723z" fill="#F2F2F2"/>
        <path d="M74.371 55.58a1.195 1.195 0 0 0-.709.078 1.022 1.022 0 0 1-.85-.003 1.174 1.174 0 0 0-1.001.02.607.607 0 0 1-.287.074c-.405 0-.743-.416-.814-.965.081-.06.15-.135.204-.222.237-.39.605-.64 1.016-.64.41 0 .777.247 1.015.632a.777.777 0 0 0 .678.377h.01c.32 0 .602.264.738.648z" fill="#000" opacity=".03"/>
        <path d="m14.655 56.098-.656.424.398-.737A.638.638 0 0 0 14 55.64h-.01a.793.793 0 0 1-.136-.01l-.222.143.095-.172a.794.794 0 0 1-.389-.301l-.397.259.254-.465a1.154 1.154 0 0 0-.89-.459c-.413 0-.782.25-1.016.64a.758.758 0 0 1-.677.37h-.022c-.457 0-.827.528-.827 1.178 0 .65.37 1.177.827 1.177.1 0 .199-.025.288-.073.314-.156.68-.163 1-.02.27.122.577.122.847 0 .317-.14.68-.133.991.02a.62.62 0 0 0 .284.071c.457 0 .827-.526.827-1.176.003-.252-.056-.501-.172-.724z" fill="#F2F2F2"/>
        <path d="M13.42 57.82a1.195 1.195 0 0 0-.709.08 1.022 1.022 0 0 1-.85-.003 1.174 1.174 0 0 0-1.001.02.607.607 0 0 1-.287.074c-.406 0-.743-.417-.814-.965.081-.06.15-.136.203-.223.237-.39.606-.64 1.016-.64.41 0 .777.247 1.016.633a.777.777 0 0 0 .677.376h.011c.32 0 .601.264.738.649z" fill="#000" opacity=".03"/>
        <path d="m44.963 2.941-1.317.849.798-1.477a1.285 1.285 0 0 0-.794-.289h-.021a1.431 1.431 0 0 1-.273-.02l-.445.287.19-.353a1.593 1.593 0 0 1-.779-.603l-.796.517.503-.933C41.563.349 40.935 0 40.243 0c-.828 0-1.567.502-2.043 1.285-.288.477-.805.76-1.355.74h-.044c-.915 0-1.656 1.057-1.656 2.36 0 1.304.741 2.36 1.656 2.36.201 0 .4-.051.577-.147a2.355 2.355 0 0 1 2.005-.04c.542.248 1.162.25 1.705.004a2.354 2.354 0 0 1 1.987.039c.176.094.372.143.571.144.916 0 1.657-1.056 1.657-2.36.007-.502-.11-.999-.34-1.444z" fill="#F2F2F2"/>
        <path d="M42.487 6.394a2.414 2.414 0 0 0-1.42.157 2.05 2.05 0 0 1-1.704 0 2.35 2.35 0 0 0-2.006.04 1.23 1.23 0 0 1-.577.147c-.813 0-1.489-.834-1.63-1.934.163-.12.301-.272.407-.446.476-.782 1.215-1.284 2.043-1.284.83 0 1.56.492 2.036 1.267.29.477.803.764 1.354.756h.021c.643-.001 1.203.526 1.476 1.297z" fill="#000" opacity=".03"/>
        <path d="m89.828 17.736-.656.423.398-.736a.638.638 0 0 0-.396-.145h-.01a.793.793 0 0 1-.137-.01l-.222.143.095-.173a.794.794 0 0 1-.388-.3l-.397.258.254-.465a1.154 1.154 0 0 0-.891-.458c-.413 0-.781.25-1.016.64a.758.758 0 0 1-.677.37h-.022c-.456 0-.826.528-.826 1.178 0 .65.37 1.176.826 1.176.1 0 .199-.025.288-.073.314-.156.68-.163 1-.02.27.122.577.122.847 0 .317-.14.68-.133.991.02a.62.62 0 0 0 .285.072c.456 0 .826-.527.826-1.177.003-.252-.056-.5-.172-.723z" fill="#F2F2F2"/>
        <path d="M88.593 19.458a1.195 1.195 0 0 0-.709.078 1.022 1.022 0 0 1-.847-.003 1.174 1.174 0 0 0-1 .022.607.607 0 0 1-.287.073c-.405 0-.743-.417-.813-.965.08-.06.15-.136.203-.222.237-.39.605-.64 1.016-.64.41 0 .777.247 1.016.632.144.237.399.38.673.377h.01c.32 0 .602.264.738.648z" fill="#000" opacity=".03"/>
    </g>
</svg>
