<svg width="45" height="60" xmlns="http://www.w3.org/2000/svg">
    <g fill-rule="nonzero" fill="none">
        <path fill="#D5D6DB" d="M17.714 32.12h9.58v25.192h-9.58z"/>
        <path d="M38.535.003H6.465a.875.875 0 0 0-.919.642L.012 45.955a.988.988 0 0 0 .994 1.14h42.988a.985.985 0 0 0 .994-1.14L39.454.645a.875.875 0 0 0-.92-.642z" fill="#E1E6E9"/>
        <path fill="#3A556A" d="m2.472 44.716 4.75-43.383h30.557l4.75 43.383z"/>
        <g fill="#E1E6E9">
            <path d="M10.108 44.716h.441L13.436.562h-.337zM18.222 44.716h.441L19.591.562h-.337zM26.337 44.716h.441L25.746.562h-.337zM34.45 44.716h.442L31.901.562h-.33z"/>
            <path d="m5.935 5.29-.03.264h33.19l-.03-.265zM5.307 10.757l-.03.287h34.447l-.03-.287zM4.626 16.662l-.037.31H40.41l-.037-.31zM3.886 23.05l-.038.333h37.304l-.037-.332zM3.085 29.99l-.044.363H41.96l-.045-.363zM2.21 37.55l-.044.4h40.669l-.045-.4z"/>
            <path d="m31.998 4.595-1.092.898 1.212.907 1.099-.907zM24.534 5.493l1.174.907 1.13-.907-1.174-.898zM18.162 5.493l1.13.907 1.174-.907-1.13-.898zM11.783 5.493l1.092.907 1.219-.907-1.092-.898zM32.357 9.934l-1.13.966 1.257.982 1.13-.982zM24.609 10.9l1.22.982 1.173-.982-1.219-.966zM17.998 10.9l1.174.982 1.22-.982-1.175-.966zM11.38 10.9l1.136.982 1.256-.982-1.129-.966zM32.738 15.695l-1.166 1.043 1.308 1.057 1.175-1.057zM24.691 16.738l1.272 1.057 1.219-1.057-1.272-1.043zM17.819 16.738l1.219 1.057 1.27-1.057-1.218-1.043zM10.946 16.738l1.174 1.057 1.316-1.057-1.174-1.043zM33.165 22.084l-1.22 1.133 1.37 1.148 1.218-1.148zM24.789 23.217l1.316 1.148 1.271-1.148-1.323-1.133zM17.624 23.217l1.271 1.148 1.317-1.148-1.264-1.133zM10.467 23.217l1.219 1.148 1.369-1.148-1.22-1.133zM33.621 28.94l-1.264 1.232 1.428 1.246 1.272-1.246zM24.886 30.172l1.376 1.246 1.324-1.246-1.377-1.231zM17.415 30.172l1.323 1.246 1.376-1.246-1.323-1.231zM9.943 30.172l1.272 1.246 1.428-1.246-1.264-1.231zM34.122 36.409l-1.324 1.344 1.503 1.36 1.317-1.36zM24.99 37.753l1.444 1.36 1.383-1.36-1.443-1.344zM17.183 37.753l1.383 1.36 1.444-1.36-1.384-1.344zM9.382 37.753l1.317 1.36 1.503-1.36-1.324-1.344z"/>
        </g>
        <path d="M34.16 56.489H10.84a1.54 1.54 0 0 0-1.495 1.51V60h26.348v-1.963a1.54 1.54 0 0 0-1.534-1.548z" fill="#EBF0F3"/>
    </g>
</svg>
