<svg width="63" height="60" xmlns="http://www.w3.org/2000/svg">
    <g fill-rule="nonzero" fill="none">
        <path d="M48.445 28.324s0 4.352-5.395 7.6c-1.5.902-3.343-.483-2.91-2.18.8-3.126 1.735-7.481 1.735-10.74 0-5.692-6.408 2.35-6.408 2.35l1.2 8.538s-.773 2.797-2.874 5.267c-1.024 1.205-2.97.77-3.402-.749-.715-2.507-1.106-6.532 1.166-11.324 3.872-8.168-5.424-.867-5.424-.867s2.543 6.771 1.015 14.094c-.3 1.444-2.063 2.032-3.189 1.075-2.489-2.115-5.958-6.395-5.637-13.685 0 0-.214 6.158-1.612 7.178 0 0-5.33-2.722-5.702-4.456-.372-1.733 0 3.589 0 3.589S30.966 39.458 20.553 60h12.892s-7.982-8.51 2.022-16.257c10.003-7.748 11.738-6.016 14.092-13.07 2.357-7.052-1.114-2.349-1.114-2.349z" fill="#9A795F"/>
        <path d="M13.402 32.243a9.497 9.497 0 0 1 2.29-.067c-.222-.923 1.284-1.625 1.849-.862.69.931-.21 2.779.886 3.16.64.222 1.213-.415 1.768-.8a2.714 2.714 0 0 1 2.646-.218l.082-1.686 1.574.064.033-1.49c2.599.311 4.402 3.65 6.973 3.159.341-.065.688-.2 1.026-.124.313.069.555.305.82.484 1.222.833 2.891.489 4.248-.106 1.354-.596 2.67-1.425 4.15-1.496 1.132-.055 2.524.246 3.193-.666.191-.262.29-.598.542-.8.732-.592 1.646.403 2.321 1.059 1.19 1.156 2.985 1.388 4.643 1.425.86.02 1.754-.004 2.522-.391.767-.387 1.364-1.238 1.193-2.078-.183-.888-1.128-1.814-.56-2.521.985.454 2.25.206 2.99-.588-.779-1.598.529-3.787 2.307-3.866.47-.02.954.08 1.407-.05.453-.132.85-.643.634-1.06-.277-.533-1.274-.456-1.384-1.046-.08-.432.414-.723.646-1.096.43-.692-.18-1.653-.963-1.87-.783-.216-1.614.083-2.353.425-.161-1.58-1.397-2.993-2.945-3.365.969-.428 1.396-1.764.855-2.672-.542-.908-1.922-1.174-2.76-.531a2.63 2.63 0 0 0-.534-2.661 2.646 2.646 0 0 0-2.625-.71l-.874-4.058c-.108-.505-.228-1.034-.563-1.429-.813-.96-2.437-.686-3.414-1.482-.252-.206-.484-.493-.81-.51-.546-.03-.857.7-1.397.781-.303.046-.588-.127-.874-.24-1.016-.404-2.294.016-2.87.944-.219-.826-1.176-1.242-2.03-1.252-.855-.01-1.693.261-2.548.28-1.366.027-2.662-.592-4.02-.744-1.359-.151-3.026.448-3.243 1.797-.102.628.12 1.362-.29 1.849-.253.303-.67.399-1.027.57a2.427 2.427 0 0 0-1.337 1.9c-.474-.342-.964-.703-1.23-1.224-.266-.52-.223-1.248.254-1.586.244-.173.557-.22.82-.362.666-.355.867-1.197.999-1.94.032-.18.063-.377-.02-.542-.09-.18-.29-.275-.474-.358L23.178.387c-.888-.39-2.135-.682-2.655.135-.167.266-.212.606-.427.835-.417.443-1.218.232-1.699.614-.535.424-.398 1.354-.923 1.792-.284.238-.685.265-1.014.432-.506.26-.797.881-.67 1.435a1.33 1.33 0 0 0 1.233 1c.506.01.969-.275 1.465-.38.496-.107 1.152.086 1.213.589.057.472-.473.821-.95.84-.474.015-.937-.17-1.411-.186-1.41-.043-2.859 1.382-4.05.627-.435-.275-.728-.81-1.236-.886-.884-.134-1.266 1.132-2.058 1.547-.79.412-2.08.043-2.398.874-.074.197-.06.413-.084.621-.126 1.134-1.274 1.84-2.32 2.3-.895.395-1.827.75-2.587 1.366-.76.613-1.332 1.56-1.212 2.53.1.823.683 1.577.573 2.399-.587.232-1.201.48-1.607.96-.406.482-.522 1.274-.075 1.72.725.726 1.975-.047 2.971.191.07.348.136.696.205 1.044l2.796.206.151.957c.738-.912 2.252-.283 3.353-.697.579-.219 1.002-.716 1.532-1.036.53-.32 1.333-.393 1.673.122a9.789 9.789 0 0 1-3.902 2.506c-.906.31-1.884.5-2.642 1.086-.758.586-1.185 1.756-.597 2.508a5.898 5.898 0 0 0-1.807.18 4.524 4.524 0 0 0 .236 2.008c1.06-.177 2.196.495 2.552 1.505.146.413.171.861.333 1.266.425 1.073 1.716 1.59 2.868 1.486 1.152-.105 2.195-.686 3.2-1.256" fill="#8CC63E"/>
        <g fill="#7FB239">
            <path d="m29.029 12.478-2.276-1.816c-.21-.17-.441-.344-.711-.356-.222-.01-.43.096-.64.165-1.276.42-2.583-.446-3.9-.708-1.896-.375-3.784.523-5.507 1.396-.443.224-.943.528-.99 1.022-.654-.283-1.357-.572-2.06-.452-.702.12-1.346.839-1.112 1.511-.734.342-1.579-.354-2.378-.22-.81.136-1.235 1.046-1.34 1.857-.107.812-.044 1.683-.45 2.394l.022.24c.935.155 1.93.336 2.628.975.288.261.508.587.78.866.917.94 2.433 1.235 3.636.708.802-.35 1.426-1.004 2.17-1.462.744-.46 1.756-.7 2.463-.185.87.635 1.002 2.2 2.07 2.345.824.114 1.391-.751 1.948-1.368a4.386 4.386 0 0 1 2.471-1.37c.748-.134 1.532-.07 2.256-.3.725-.23 1.406-.907 1.268-1.654-.325.419-1.154.085-1.096-.442.078-.733 1.25-.782 1.577-1.443.303-.615-.294-1.275-.83-1.703zM50.473 10.117c-.392-.395-.987-.652-1.134-1.189-.061-.22-.034-.456-.024-.684.093-2.22-1.92-4.308-4.146-4.3.057.257.112.513.17.77-.997-.263-2.139.203-2.665 1.087L37.337 4.11c-.217-.069-.459-.136-.662-.035-.234.116-.316.403-.446.629-.42.73-1.38.886-2.192 1.12-.81.234-1.715.886-1.52 1.706l-.25.707c-.36 1.466.859 3.106 2.369 3.188.642.035 1.268-.169 1.896-.293a7.873 7.873 0 0 1 2.918-.021c.163.03.338.07.448.196.428.48-.616 1.18-.368 1.773.099.234.364.342.607.419 1.55.483 3.213.599 4.813.332.6-.1 1.239-.281 1.619-.757.356-.446.443-1.105.907-1.437.792-.564 1.985.244 2.843-.212.557-.023.546-.912.154-1.307zM34.976 26.83c-.277-.587-.77-1.043-1.277-1.448-1.349-1.077-3.125-1.942-4.76-1.39-.507.172-.968.468-1.485.596-1.784.434-3.47-1.25-5.302-1.161-1.707.082-3.06 1.672-4.767 1.747-.82.035-1.612-.29-2.43-.366-.82-.076-1.797.218-2.047.999-.17.528.044 1.155-.238 1.635-.215.367-.654.534-.969.823-.819.75-.616 2.064-.348 3.14l.059-.25c.36-.25.6.418.858.772.268.37.821.43 1.247.261.425-.169.75-.515 1.059-.85.655-.714 1.327-1.46 2.213-1.852.886-.395 2.053-.338 2.683.397.48.56.725 1.511 1.463 1.545.86.039 1.085-1.166 1.646-1.818.626-.73 1.73-.745 2.693-.704.593.026 1.203.055 1.745.295.506.224.917.615 1.403.878.487.264 1.128.378 1.567.042a2.084 2.084 0 0 1-.547-1.476l2.597.516c.994.199 2.217.319 2.837-.481.398-.513.378-1.262.1-1.85zM57.64 20.288c-.914.485-2.07.222-2.934-.346-.865-.566-1.516-1.393-2.229-2.142-.281-.297-.59-.592-.982-.714-.577-.179-1.19.06-1.788.13-1.953.232-4.056-1.283-5.776-.33-.863.477-1.572 1.545-2.532 1.324-.418-.096-.737-.428-1.123-.613-.635-.304-1.392-.184-2.063.03a8.08 8.08 0 0 0-3.46 2.199l.22.395a1.057 1.057 0 0 0-.883.611c1.007.09 1.802 1.166 1.595 2.152-.065.313-.214.612-.205.93.024.818.977 1.213 1.733 1.523a8.876 8.876 0 0 1 2.78 1.816c.18.173.358.366.421.61.15.585-.433 1.131-.41 1.735.026.666.806 1.085 1.47 1.008.663-.075 1.232-.481 1.805-.825a11.272 11.272 0 0 1 2.813-1.205c.172-.047.355-.09.524-.038.165.05.293.183.45.252.473.21.975-.18 1.38-.5.406-.32 1.05-.571 1.385-.176-.476 1.46.994 3.166 2.512 2.909-.293-.596.31-1.237.88-1.577.571-.34 1.266-.762 1.243-1.426-.026-.728-.87-1.073-1.451-1.514a2.806 2.806 0 0 1-1.032-2.761c.041-.193.11-.391.26-.52.234-.2.579-.168.884-.133 1.285.148 2.589.136 3.872-.033.311-.041.634-.098.88-.29.719-.565.264-1.713-.24-2.481z"/>
        </g>
    </g>
</svg>
